<svg width="1297" height="168" viewBox="0 0 1297 168" fill="none" xmlns="http://www.w3.org/2000/svg">
<g filter="url(#filter0_ii)">
<path d="M60.5649 120H72.5649V132H60.5649H48.5649H36.5649H24.5649H12.5649V120V108V96V84V72V60V48V36H0.564941V24H12.5649V12H24.5649V0H36.5649V12V24V36V48V60V72V84V96V108V120H48.5649H60.5649ZM72.5649 120V108H84.5649V120H72.5649ZM96.5649 72V60H108.565V72H96.5649ZM156.565 132H144.565H132.565H120.565H108.565V120H96.5649V108V96H108.565V84H120.565V72H132.565H144.565V60H132.565H120.565H108.565V48H120.565V36H132.565H144.565H156.565V48H168.565V60V72V84V96V108H180.565V120H168.565V132H156.565ZM132.565 120H144.565V108V96V84H132.565H120.565V96V108V120H132.565ZM312.565 120H324.565V108V96V84H312.565V72H300.565V60H312.565V48H324.565V36H312.565V24H300.565V12H288.565V24V36V48V60V72V84V96V108V120H300.565H312.565ZM312.565 132H300.565H288.565H276.565H264.565V120H252.565V108H264.565V96V84V72V60V48V36H252.565V24H264.565V12H276.565V0H288.565H300.565H312.565H324.565V12H336.565V24H348.565V36H336.565V48H324.565V60H336.565V72H348.565V84V96V108H336.565V120H324.565V132H312.565ZM408.565 132H396.565H384.565V120H372.565V108H360.565V96V84V72V60H372.565V48H384.565V60V72V84V96H396.565V108H408.565V120H420.565V132H408.565ZM420.565 120V108V96V84V72H408.565V60H396.565V48H384.565V36H396.565H408.565H420.565V48H432.565V60H444.565V72V84V96V108H432.565V120H420.565ZM540.565 132H528.565V120V108H516.565V120H504.565V132H492.565H480.565V120H468.565V108V96V84V72H456.565V60H468.565V48H480.565V36H492.565V48V60V72V84V96V108H504.565H516.565V96H528.565V84V72V60V48H540.565V36H552.565V48V60V72V84V96V108H564.565V120H552.565V132H540.565ZM600.565 132H588.565V120V108V96V84V72V60V48V36H576.565V24H588.565V12H600.565V0H612.565V12V24V36V48V60V72V84V96V108H624.565V120H612.565V132H600.565ZM636.565 72V60H648.565V72H636.565ZM696.565 132H684.565H672.565H660.565H648.565V120H636.565V108V96H648.565V84H660.565V72H672.565H684.565V60H672.565H660.565H648.565V48H660.565V36H672.565H684.565H696.565V48H708.565V60V72V84V96V108H720.565V120H708.565V132H696.565ZM672.565 120H684.565V108V96V84H672.565H660.565V96V108V120H672.565ZM816.565 132H804.565V120V108V96V84V72V60V48H792.565V60H780.565V72H768.565V84V96V108H780.565V120H768.565V132H756.565H744.565V120V108V96V84V72H732.565V60H744.565V48H756.565V36H768.565V48V60H780.565V48H792.565V36H804.565H816.565H828.565V48V60V72V84V96V108H840.565V120H828.565V132H816.565ZM900.565 156H912.565V168H900.565H888.565H876.565H864.565V156H852.565V144V132H864.565H876.565V144H888.565V156H900.565ZM912.565 156V144V132V120H900.565V108H912.565V96V84V72H900.565V60H888.565V48H876.565V60V72V84V96V108H888.565V120H900.565V132H888.565H876.565V120H864.565V108H852.565V96V84V72V60H864.565V48H876.565V36H888.565H900.565V48H912.565V36H924.565H936.565V48H948.565V60H936.565V72V84V96V108V120V132V144H924.565V156H912.565ZM1020.56 120H1032.56V132H1020.56H1008.56H996.565H984.565H972.565V120H960.565V108V96V84V72V60H972.565V48H984.565V60V72V84V96H996.565V108V120H1008.56H1020.56ZM1032.56 120V108H1044.56V120H1032.56ZM996.565 96V84H1008.56V96H996.565ZM1008.56 84V72H1020.56V84H1008.56ZM1020.56 72V60H1008.56V48H996.565H984.565V36H996.565H1008.56H1020.56H1032.56V48H1044.56V60H1032.56V72H1020.56ZM1080.56 132H1068.56V120V108V96V84V72H1056.56V60H1068.56V48H1080.56V36H1092.56V48V60H1104.56V72H1092.56V84V96V108H1104.56V120H1092.56V132H1080.56ZM1128.56 72H1116.56V60H1104.56V48H1116.56V36H1128.56V48H1140.56V60V72H1128.56ZM1164.56 36V24V12H1176.56V0H1188.56V12V24H1176.56V36H1164.56ZM1176.56 132H1164.56V120V108V96V84H1152.56V72H1164.56V60H1176.56V48H1188.56V60V72V84V96V108H1200.56V120H1188.56V132H1176.56ZM1272.56 120H1284.56V132H1272.56H1260.56H1248.56H1236.56H1224.56V120H1212.56V108V96V84V72V60H1224.56V48H1236.56V60V72V84V96H1248.56V108V120H1260.56H1272.56ZM1284.56 120V108H1296.56V120H1284.56ZM1248.56 96V84H1260.56V96H1248.56ZM1260.56 84V72H1272.56V84H1260.56ZM1272.56 72V60H1260.56V48H1248.56H1236.56V36H1248.56H1260.56H1272.56H1284.56V48H1296.56V60H1284.56V72H1272.56Z" fill="#FF8C42"/>
</g>
<defs>
<filter id="filter0_ii" x="0.564941" y="0" width="1296" height="172" filterUnits="userSpaceOnUse" color-interpolation-filters="sRGB">
<feFlood flood-opacity="0" result="BackgroundImageFix"/>
<feBlend mode="normal" in="SourceGraphic" in2="BackgroundImageFix" result="shape"/>
<feColorMatrix in="SourceAlpha" type="matrix" values="0 0 0 0 0 0 0 0 0 0 0 0 0 0 0 0 0 0 127 0" result="hardAlpha"/>
<feOffset dy="13"/>
<feGaussianBlur stdDeviation="2"/>
<feComposite in2="hardAlpha" operator="arithmetic" k2="-1" k3="1"/>
<feColorMatrix type="matrix" values="0 0 0 0 0.988235 0 0 0 0 0.686275 0 0 0 0 0.345098 0 0 0 0.69 0"/>
<feBlend mode="normal" in2="shape" result="effect1_innerShadow"/>
<feColorMatrix in="SourceAlpha" type="matrix" values="0 0 0 0 0 0 0 0 0 0 0 0 0 0 0 0 0 0 127 0" result="hardAlpha"/>
<feOffset dy="3"/>
<feGaussianBlur stdDeviation="2"/>
<feComposite in2="hardAlpha" operator="arithmetic" k2="-1" k3="1"/>
<feColorMatrix type="matrix" values="0 0 0 0 0.976471 0 0 0 0 0.780392 0 0 0 0 0.517647 0 0 0 0.69 0"/>
<feBlend mode="normal" in2="effect1_innerShadow" result="effect2_innerShadow"/>
</filter>
</defs>
</svg>
