<?xml version="1.0" encoding="UTF-8" standalone="no"?>
<svg version="1.1" id="svg69" width="1060" height="1061.3333" viewBox="0 0 1060 1061.3333"
    xmlns="http://www.w3.org/2000/svg" xmlns:svg="http://www.w3.org/2000/svg"
    fill="#E4D9FF" fill-opacity="0.2"
>
    <defs id="defs73" />
    <g id="g75">
        <path
            d="m 131.90044,1031.6856 c -16.96915,-16.3591 -52.646209,-51.86592 -79.282349,-78.90402 -40.4863,-41.0972 -48.2222102,-49.5472 -47.1663602,-51.52 0.69465,-1.298 8.7152802,-10.0953 17.8236202,-19.5497 l 16.56064,-17.1897 -19.76535,-20.6235 -19.7653502,-20.6236 38.5696002,-38.675 c 21.21327,-21.2712 38.56959,-39.3707 38.56959,-40.221 0,-0.8504 -8.55,-9.7356 -19,-19.7449 l -19,-18.1989 56,-55.6193 c 30.799999,-30.5906 58.248439,-57.3217 60.996549,-59.40238 4.93257,-3.73464 5.04351,-3.75247 8.66667,-1.39203 2.01856,1.31507 10.74528,9.30856 19.3927,17.76331 l 15.72259,15.3722 36.22041,-36.22036 36.22042,-36.22041 -16.05748,-16.38727 c -20.89072,-21.31977 -20.68416,-20.90316 -14.28154,-28.80454 2.78519,-3.43718 29.49847,-30.8494 59.36286,-60.91607 l 54.29886,-54.66666 19.40278,19.3232 19.40277,19.3232 36.98275,-36.98274 36.98273,-36.98274 -19.3118,-19.34631 -19.31179,-19.34632 59.97779,-59.98885 59.9777,-59.98886 19.3566,19.32437 19.3567,19.32436 37.9468,-37.96432 37.9467,-37.96432 -4.0308,-4.36533 c -2.217,-2.40093 -10.1487,-10.86599 -17.6259,-18.81124 -7.4773,-7.94525 -13.5951,-15.34322 -13.5951,-16.43994 0,-1.09671 26.0298,-28.171583 57.844,-60.166373 l 57.8439,-58.1723496 18.3242,17.6122796 c 10.0783,9.68676 19.4126,17.61229 20.7429,17.61229 1.3303,0 9.2046,-6.47736 17.4985,-14.39414 15.8566,-15.1355396 21.9466,-20.2725296 24.0336,-20.2725296 0.6934,0 9.3094,7.7999996 19.1466,17.3333296 9.8372,9.53334 18.7872,17.33334 19.8889,17.33334 2.4615,0 9.3102,-5.88045 26.7676,-22.98337 l 13.4234,-13.1508996 57.9099,58.4309296 c 55.11255,55.608393 91.26995,93.452163 95.59595,100.054443 1.824,2.7838 1.6941,3.438 -1.6366,8.24417 -1.9897,2.87123 -9.8648,11.29842 -17.5002,18.72708 -7.6354,7.42867 -13.8826,13.63039 -13.8826,13.78162 0,0.15122 6.1846,6.56469 13.7436,14.25216 7.559,7.68745 15.4391,16.23892 17.5114,19.00324 l 3.7679,5.02605 -7.7403,8.30728 c -44.6387,47.90868 -810.67799,815.64062 -813.84226,815.64062 -0.76273,0 -9.51577,-7.8923 -19.4512,-17.5385 -21.37006,-20.748 -18.7582,-20.6434 -36.40376,-1.4569 -6.24234,6.7875 -13.35824,13.8729 -15.81309,15.7453 l -4.46335,3.4044 z"
            id="path237" />
    </g>
</svg>