<svg width="1389" height="1268" viewBox="0 0 1389 1268" fill="#E4D9FF" fill-opacity="0.05"
    xmlns="http://www.w3.org/2000/svg">
    <path
        d="M544.116 1263.61C540.625 1260.68 538.693 1258.02 538.693 1256.13C538.693 1254.29 537.762 1252.95 536.199 1252.54C532.724 1251.63 531.644 1245.97 533.537 1238.58C535.481 1231 534.463 1229.2 531.815 1235.53C530.012 1239.85 529.535 1240.14 524.176 1240.14C517.687 1240.14 513.923 1237.43 515.13 1233.62C515.749 1231.68 515.255 1231.21 512.582 1231.21C508.733 1231.21 506.967 1227.99 509.161 1224.97C515.323 1216.5 515.858 1215.15 515.362 1209.36C515.076 1206.04 513.635 1201.75 512.059 1199.54C510.521 1197.38 508.165 1191.42 506.823 1186.3L504.382 1176.98L504.312 1184.24C504.274 1188.23 504.807 1192.98 505.498 1194.79C507.158 1199.16 504.878 1209.82 501.663 1212.73C498.916 1215.22 493.622 1214.5 489.887 1211.13C488.417 1209.81 487.654 1209.65 487.654 1210.65C487.654 1211.5 486.245 1213.59 484.522 1215.32C482.113 1217.73 480.048 1218.45 475.573 1218.45C472.374 1218.45 468.691 1219.11 467.39 1219.93C463.765 1222.19 461.084 1220.36 460.18 1215.01C458.922 1207.56 458.404 1206.16 455.61 1202.61C451.856 1197.83 447.986 1198.4 443.148 1204.41C438.411 1210.31 435.883 1210.7 428.642 1206.65C423.627 1203.84 423.478 1203.83 422.088 1206.23C419.4 1210.86 411.922 1218.62 408.384 1220.44C403.441 1223 401.791 1222.8 390.575 1218.33C380.038 1214.12 378.989 1212.9 377.328 1202.86C376.026 1194.99 367.713 1191.74 360.056 1196.12C354.595 1199.24 350.502 1198.48 346.153 1193.52C341.499 1188.22 340.772 1180.39 344.432 1174.96C345.657 1173.14 349.099 1168.03 352.081 1163.6C355.064 1159.16 357.504 1154.58 357.504 1153.42C357.504 1152.26 355.73 1149.62 353.562 1147.56C347.612 1141.9 345.604 1137.41 347.461 1133.91C348.296 1132.34 354.803 1124.45 361.923 1116.38C369.042 1108.31 379.792 1095.67 385.812 1088.29C397.149 1074.39 399.209 1072.74 408.091 1070.49C412.498 1069.37 413.702 1068.35 415.303 1064.37C416.36 1061.75 418.608 1058.31 420.3 1056.74C424.853 1052.49 450.988 1041.18 463.258 1038.15L473.952 1035.5L484.95 1038.36C495.292 1041.04 496.329 1041.09 502.328 1039.26C509.351 1037.12 511.523 1037.48 518.572 1041.93C524.187 1045.47 528.624 1045.74 533.113 1042.79C537.84 1039.7 538.783 1036.04 537.136 1027.18C535.42 1017.95 536.794 1013.79 541.985 1012.49C546.962 1011.24 561.006 1018.27 563.62 1023.33C566.197 1028.31 567.065 1028.05 566.043 1022.6C565.507 1019.74 565.7 1018.14 566.58 1018.14C569.619 1018.14 589.371 998.921 592.792 992.636C596.189 986.395 596.246 985.997 594.201 982.876C591.335 978.502 592.614 974.185 597.359 972.219C599.616 971.284 602.392 968.466 604.114 965.359C606.574 960.924 607.673 960.086 611.035 960.086C613.233 960.086 615.464 959.656 615.993 959.129C617.822 957.308 619.219 958.189 620.548 962C621.3 964.159 622.801 965.833 623.99 965.84C625.15 965.85 628.62 967.856 631.701 970.306C637.755 975.118 640.772 975.93 640.772 972.747C640.772 968.892 647.875 963.276 652.751 963.276C655.942 963.276 657.666 962.537 658.616 960.761C659.625 958.876 660.835 958.42 663.446 958.939C666.667 959.579 667.099 959.151 669.18 953.259C670.498 949.527 673.136 945.453 675.546 943.425C679.57 940.039 679.931 939.98 691.797 940.751C698.472 941.186 705.949 941.891 708.414 942.319C712.362 943.005 713.799 942.395 720.526 937.171C727.753 931.559 729.105 931.165 734.07 933.221C735.473 933.801 736.339 933.296 736.771 931.645C737.486 928.912 742.148 927.634 752.261 927.401C755.858 927.318 760.43 926.887 762.421 926.444L766.041 925.638L762.74 922.545C756.392 916.597 759.744 909.061 772.585 900.413C774.525 899.106 776.598 895.956 777.501 892.944C778.359 890.079 779.958 887.458 781.053 887.121C782.148 886.784 785.269 885.576 787.989 884.436C793.91 881.956 792 880.783 785.522 882.921C783.012 883.749 780.642 884.109 780.254 883.721C778.255 881.722 781.661 873.366 786.232 869.055C790.991 864.566 791.223 863.955 792.595 852.276C793.378 845.609 794.475 839.699 795.033 839.14C795.591 838.582 801.425 838.665 807.997 839.324C819.055 840.433 820.189 840.81 823.187 844.38C828.97 851.265 832.169 857.466 832.169 861.792C832.169 867.236 835.332 870.937 841.729 872.981C845.263 874.11 847.78 876.088 849.951 879.441C853.005 884.161 853.114 884.209 854.567 881.493C857.108 876.746 861.253 875.418 871.183 876.169C879.672 876.811 880.414 876.658 882.38 873.851C883.537 872.198 884.485 869.214 884.485 867.22C884.485 864.748 885.717 862.557 888.359 860.335C894.308 855.329 895.969 850.973 895.969 840.37C895.969 831.069 896.052 830.826 900.349 827.548C905.804 823.388 906.572 823.396 911.918 827.661C914.299 829.561 917.857 831.14 919.825 831.17C922.906 831.217 923.491 831.828 924.04 835.578C924.601 839.406 924.883 839.684 926.371 837.881C927.303 836.753 930.935 834.876 934.444 833.711C941.668 831.312 948.761 831.777 965.51 835.747C971.124 837.077 978.298 838.327 981.453 838.523C986.694 838.849 987.245 839.203 987.833 842.623C988.339 845.56 989.85 847.071 994.856 849.64C1000.81 852.694 1001.29 853.307 1002.06 858.779C1003.29 867.568 1006.15 872.205 1010.91 873.157C1014.58 873.891 1014.89 874.31 1014.21 877.682C1013.72 880.136 1014.1 881.922 1015.33 882.942C1016.35 883.79 1017.19 885.346 1017.19 886.399C1017.19 887.927 1017.56 888.003 1019.04 886.775C1020.06 885.929 1022.05 885.606 1023.47 886.056C1026.98 887.168 1031.79 894.197 1031.5 897.766C1031.17 901.794 1039.11 903.868 1050.56 902.741C1062.84 901.531 1067.04 903.588 1071.88 913.182C1073.97 917.31 1076.46 921.342 1077.43 922.143C1078.45 922.989 1082.9 923.491 1088.06 923.343C1099.03 923.026 1103.53 924.209 1104.64 927.697C1106.1 932.292 1102.38 934.555 1093.16 934.68C1087.86 934.751 1083.87 935.534 1081.76 936.912C1079.74 938.235 1075.74 939.068 1071.14 939.124C1067.08 939.174 1062.61 939.67 1061.21 940.228C1059.8 940.786 1057.29 940.731 1055.62 940.106C1047.72 937.155 1043.79 943.764 1044.53 958.725C1044.92 966.63 1045.86 970.253 1049.6 978.114C1056.01 991.607 1055.55 995.659 1047.11 999.987C1044.63 1001.26 1041.68 1004.23 1040.45 1006.7C1038.88 1009.84 1037.25 1011.24 1034.81 1011.52C1030.09 1012.06 1026.8 1008.39 1024.3 999.782C1022.71 994.308 1021.57 992.516 1019.39 992.058C1017.83 991.731 1013.39 990.848 1009.53 990.098C1005.09 989.234 998.574 986.338 991.773 982.203C976.614 972.986 968.134 972.613 955.675 980.616C950.542 983.913 947.42 991.235 948.135 998.3C948.43 1001.22 947.626 1002.8 944.558 1005.32C940.878 1008.34 940.691 1008.88 941.895 1013.03C942.988 1016.8 942.729 1018.4 940.241 1023.24C936.768 1029.99 932.728 1031.93 925.793 1030.17C917.755 1028.14 916.067 1024.37 916.328 1009.03C916.452 1001.76 916.571 993.625 916.592 990.953C916.642 984.661 911.57 977.271 902.707 970.725C894.133 964.392 891.969 960.05 890.724 946.69C889.843 937.24 890.033 935.178 892.203 930.658C893.572 927.805 894.693 923.117 894.693 920.241C894.693 915.353 894.31 914.797 888.828 911.734C882.743 908.333 880.43 908.541 876.892 912.803C875.542 914.43 875.617 915.338 877.316 917.932C880.454 922.721 879.849 926.337 875.27 930.159C871.484 933.32 871.283 933.86 872.718 937.01C874.562 941.056 874.759 945.414 873.099 945.414C870.77 945.414 864.069 952.07 864.069 954.383C864.069 955.683 867.511 959.776 871.718 963.478C880.953 971.607 883.051 976.479 879.974 982.655C878.817 984.978 876.127 988.36 873.997 990.169C870.474 993.161 870.271 993.737 871.752 996.548C872.647 998.247 874.73 1001.26 876.38 1003.24C882.063 1010.08 879.3 1027.21 870.064 1042.41C867.013 1047.43 864.857 1049.48 861.521 1050.54C858.153 1051.6 856.263 1053.42 853.811 1057.96C845.381 1073.58 837.326 1076.93 822.085 1071.17C818.994 1070.01 815.719 1069.34 814.805 1069.69C813.892 1070.04 811.959 1072.65 810.51 1075.49L807.874 1080.66H786.272C769.32 1080.66 764.45 1080.28 763.649 1078.91C762.973 1077.75 759.186 1076.95 752.421 1076.55C736.617 1075.61 727.675 1072.53 719.456 1065.2C715.606 1061.77 711.238 1058.97 709.75 1058.97C708.261 1058.97 706.713 1058.1 706.309 1057.05C705.544 1055.06 702.019 1054.35 702.019 1056.19C702.019 1056.77 703.455 1058.59 705.209 1060.24C707.751 1062.63 708.399 1064.48 708.399 1069.35C708.399 1076.65 706.54 1078.1 697.212 1078.1C693.774 1078.1 690.641 1078.42 690.249 1078.82C689.857 1079.21 690.193 1081.27 690.993 1083.39C692.284 1086.82 692.124 1087.52 689.579 1089.58C682.443 1095.36 688.369 1099.61 711.795 1105.49C721.102 1107.82 735.691 1113.87 739.134 1116.82C740.571 1118.05 741.575 1120.55 741.575 1122.89V1126.88L747.309 1126.02C751.612 1125.37 753.964 1125.7 756.737 1127.34C760.285 1129.43 760.608 1129.41 764.871 1126.78C767.312 1125.27 770.49 1124.03 771.932 1124.03C776.979 1124.03 786.032 1136.15 783.144 1139.03C782.679 1139.5 779.596 1140.19 776.292 1140.57L770.284 1141.26L770.709 1148.35C771.189 1156.38 770.635 1157.15 761.991 1160.44C758.833 1161.65 755.051 1164.03 753.587 1165.74C749.791 1170.17 745.318 1168.63 737.286 1160.12C725.375 1147.51 710.994 1138.53 696.875 1134.87C689.936 1133.07 686.91 1132.96 676.956 1134.13C658.468 1136.31 653.313 1135.99 647.912 1132.33C642.563 1128.7 640.772 1128.35 640.772 1130.95C640.772 1134.94 642.761 1137.12 652.716 1144.03C667.419 1154.24 669.846 1157.68 665.623 1162.34C663.044 1165.19 664.129 1167.55 670.307 1172.51C681.554 1181.55 683.174 1190.12 675.751 1201.31C668.039 1212.92 665.211 1214.62 653.558 1214.62C643.576 1214.62 643.57 1214.62 639.785 1219.34C636.016 1224.04 635.981 1224.05 632.62 1221.85C630.762 1220.63 627.673 1219.8 625.756 1220C622.558 1220.33 622.263 1219.99 622.174 1215.82C622.048 1209.94 621.134 1208.6 615.688 1206.33C613.144 1205.26 610.887 1203.27 610.485 1201.74C609.827 1199.22 609.222 1199.09 602.05 1199.9C590.153 1201.24 589.695 1201.7 590.601 1211.4C591.493 1220.96 589.553 1225.27 583.745 1226.63C573.655 1228.99 570.493 1232.52 575.067 1236.32C576.124 1237.19 577.018 1239.42 577.055 1241.26C577.091 1243.1 577.164 1246.58 577.218 1248.99C577.335 1254.26 573.073 1258.23 564.044 1261.24C560.794 1262.32 557.116 1264.33 555.872 1265.71C552.682 1269.23 550.32 1268.81 544.117 1263.61H544.116ZM824.858 1235.99C821.627 1232.49 815.581 1218.36 815.581 1214.31C815.581 1210.44 818.901 1205.82 822.728 1204.37C825.079 1203.47 825.802 1202.23 825.844 1199.02C825.893 1195.35 826.811 1194.25 833.512 1189.9C840.177 1185.56 841.823 1185.03 846.738 1185.58C849.825 1185.93 854.158 1187.5 856.365 1189.07L860.379 1191.93L868.493 1184.14C876.731 1176.23 877.605 1175.74 881.19 1177.12C887.496 1179.54 877.901 1198.03 870.34 1198.03C869.189 1198.03 866.052 1199.78 863.369 1201.91C859.563 1204.94 857.7 1205.61 854.899 1205C851.769 1204.31 851.305 1204.59 851.281 1207.18C851.266 1208.82 849.533 1213.31 847.43 1217.17C845.327 1221.03 842.223 1227.13 840.532 1230.72C838.841 1234.31 836.508 1237.61 835.347 1238.05C831.319 1239.6 827.496 1238.85 824.858 1235.99ZM850.572 1232.32C848.974 1229.74 849.641 1221.63 851.796 1217.46C855.427 1210.44 864.245 1210.42 865.092 1217.43C865.366 1219.7 864.538 1221.23 862.221 1222.75C860.43 1223.93 858.965 1225.99 858.965 1227.34C858.965 1228.68 857.688 1230.68 856.129 1231.77C852.754 1234.14 851.754 1234.23 850.572 1232.32V1232.32ZM789.416 1213.33C787.779 1210.17 786.875 1209.63 784.28 1210.28C779.267 1211.54 774.865 1209.77 772.231 1205.44C769.107 1200.3 770.662 1196.76 776.041 1196.76C780.435 1196.76 784.346 1191.93 783.109 1188.03C782.677 1186.67 780.046 1184.05 777.261 1182.21C770.069 1177.45 770.446 1174.21 779.216 1165.44C783.076 1161.59 786.234 1157.67 786.234 1156.74C786.234 1155.81 787.441 1153.96 788.916 1152.62C790.392 1151.29 792.416 1148.62 793.415 1146.68C795.5 1142.65 799.491 1142.07 803.04 1145.28C807.589 1149.4 805.288 1144.56 799.51 1137.85C792.396 1129.6 791.439 1127.33 792.708 1121.7C794.057 1115.72 795.658 1114.49 801.862 1114.65C806.259 1114.77 807.824 1115.54 810.734 1119.02C812.678 1121.35 816.143 1123.87 818.434 1124.63C822.467 1125.96 822.594 1126.21 822.424 1132.67C822.208 1140.86 823.949 1141.3 831.061 1134.88C838.419 1128.23 842.869 1128.99 844.975 1137.24C847.413 1146.8 848.962 1149.55 852.427 1150.47C856.419 1151.53 858.265 1151.23 863.74 1148.66C868.318 1146.51 873.97 1147.27 875.088 1150.18C875.475 1151.19 874.589 1153.7 873.12 1155.76C871.65 1157.83 870.448 1160.04 870.448 1160.69C870.448 1163.02 864.492 1167.39 860.179 1168.23C857.757 1168.7 855.315 1169.86 854.754 1170.8C853.468 1172.96 846.607 1173.06 845.858 1170.92C845.55 1170.05 846.07 1166.74 847.014 1163.59C847.957 1160.43 848.735 1157.7 848.743 1157.53C848.795 1156.32 845.393 1157.69 841.973 1160.23C839.739 1161.9 836.188 1163.81 834.083 1164.48C829.443 1165.96 825.834 1171.9 821.225 1185.64C817.192 1197.67 813.009 1203.14 807.849 1203.14C804.645 1203.14 803.745 1204.04 800.852 1210.16C798.186 1215.79 796.929 1217.17 794.468 1217.17C792.351 1217.17 790.789 1215.98 789.416 1213.33ZM176.376 1193.63C173.771 1190.86 173.546 1189.96 174.79 1187.23C176.034 1184.5 176.826 1184.16 180.423 1184.82C186.89 1186.02 188.446 1188.04 186.327 1192.47C184.048 1197.24 180.19 1197.69 176.376 1193.63ZM145.999 1183.61C141.256 1181.17 140.606 1180.33 140.895 1177C141.129 1174.3 142.412 1172.44 145.308 1170.62C148.099 1168.86 149.183 1167.35 148.734 1165.83C148.287 1164.32 149.122 1163.13 151.35 1162.12C153.716 1161.04 154.623 1159.65 154.623 1157.09C154.623 1153.81 157.417 1149.55 159.574 1149.55C160.091 1149.55 161.629 1150.38 162.992 1151.39C165.099 1152.95 165.231 1153.61 163.874 1155.84C161.849 1159.15 161.843 1164.11 163.857 1169.68C165.309 1173.7 165.196 1174.24 162.443 1176.47C160.721 1177.86 159.758 1179.69 160.174 1180.77C160.971 1182.85 156.519 1186.59 153.382 1186.48C152.31 1186.45 148.987 1185.15 145.999 1183.61ZM108.943 1167.16C106.859 1165.08 107.018 1163.59 109.325 1163.59C110.378 1163.59 111.171 1163.16 111.088 1162.63C110.438 1158.51 113.791 1156.43 117.712 1158.53C121.007 1160.3 120.825 1164.26 117.335 1166.7C113.94 1169.08 111.024 1169.24 108.943 1167.16ZM126.008 1153.8C125.559 1152.63 125.753 1151.12 126.44 1150.43C127.127 1149.74 127.376 1147.61 126.993 1145.7C126.492 1143.2 126.976 1141.73 128.715 1140.46C130.045 1139.5 132.44 1136.56 134.036 1133.95C135.633 1131.33 138.621 1127.99 140.677 1126.52C142.733 1125.06 144.415 1122.81 144.415 1121.53C144.415 1118.96 146.822 1117.66 151.554 1117.66C153.261 1117.66 155.824 1116.94 157.25 1116.06C159.473 1114.69 160.884 1115.03 167.122 1118.4C177.201 1123.84 177.119 1125.65 166.566 1130.72C159.286 1134.22 157.749 1135.53 156.889 1138.95C155.855 1143.06 150.594 1148.28 147.478 1148.28C146.544 1148.28 145.1 1149.57 144.269 1151.15C142.088 1155.29 140.713 1155.89 133.387 1155.91C128.426 1155.93 126.625 1155.41 126.008 1153.8ZM225.057 1153.12C220.766 1148.83 225.629 1141.92 234.701 1139.42C239.038 1138.22 243.965 1139.4 243.925 1141.62C243.898 1143.19 230.181 1154.66 228.337 1154.66C227.375 1154.66 225.899 1153.97 225.057 1153.12ZM186.522 1138.27C186.522 1133.01 188.312 1130.78 194.721 1128.03C196.774 1127.16 200.699 1123.89 203.442 1120.77C208.671 1114.83 213.318 1113.29 213.318 1117.5C213.318 1122.14 209.337 1129.34 205.604 1131.46C203.527 1132.64 201.508 1134.59 201.117 1135.8C200.002 1139.26 194.192 1143.17 190.178 1143.17C186.788 1143.17 186.522 1142.82 186.522 1138.27ZM234.584 1130.84C233.175 1129.43 233.628 1120.42 235.157 1119.48C236.038 1118.93 236.327 1116.36 235.916 1112.71C235.102 1105.49 236.211 1103.27 242.354 1099.82C244.987 1098.34 248.449 1094.85 250.046 1092.08C251.643 1089.3 253.65 1087.05 254.506 1087.06C256.798 1087.09 264.357 1096.67 264.357 1099.54C264.357 1100.89 263.209 1103.46 261.805 1105.24C258.793 1109.07 258.639 1110 261.011 1110C261.978 1110 263.492 1110.87 264.377 1111.94C266.673 1114.7 263.672 1117.62 253.146 1122.86C248.434 1125.2 243.21 1128.15 241.536 1129.41C238.354 1131.79 236.021 1132.28 234.584 1130.84ZM830.893 1125.39C830.893 1124.02 831.477 1122.55 832.19 1122.11C832.903 1121.67 833.131 1120.73 832.696 1120.03C832.212 1119.24 833.558 1118.91 836.174 1119.16C841.899 1119.71 842.548 1123.22 837.416 1125.87C832.355 1128.49 830.893 1128.38 830.893 1125.39ZM817.586 1118.2C815.184 1115.8 815.181 1115.72 817.267 1109.74C819.445 1103.49 822.934 1099.79 826.665 1099.79C830.047 1099.79 831.978 1103.05 829.856 1105.17C829.099 1105.93 828.806 1108.18 829.205 1110.17C830.719 1117.74 822.682 1123.3 817.586 1118.2ZM226.303 1115.56C226.922 1112.42 230.765 1110.35 232.592 1112.18C234.882 1114.47 232.916 1117.66 229.214 1117.66C226.815 1117.66 226.005 1117.07 226.303 1115.56ZM130.477 1113.08C124.27 1107.85 125.989 1102.09 135.164 1097.36C139.04 1095.36 138.777 1093.86 134.126 1091.46C129.185 1088.9 129.78 1087.04 136.519 1083.95C140.326 1082.2 141.863 1080.72 141.863 1078.81C141.863 1071.45 148.63 1068.58 157.995 1071.96C161.646 1073.28 162.539 1073.16 164.924 1071.01C166.43 1069.65 168.749 1066.24 170.077 1063.43C171.405 1060.62 174.212 1057.35 176.317 1056.15C178.824 1054.73 180.143 1052.97 180.145 1051.05C180.148 1046.47 190.305 1040.56 196.474 1041.55C202.511 1042.51 205.817 1046.39 204.826 1051.35C203.616 1057.4 205.313 1061.53 209.626 1063.03C213.98 1064.55 215.87 1068.29 215.87 1075.41C215.87 1079.37 214.933 1081.1 210.447 1085.44C207.464 1088.32 204.019 1091.87 202.791 1093.32C201.563 1094.78 199.697 1095.97 198.644 1095.97C195.588 1095.97 191.626 1091.16 191.626 1087.46V1084.06L187.479 1088.71C184.651 1091.88 179.292 1095.17 170.626 1099.05C160.405 1103.62 157.28 1105.68 154.649 1109.55C151.148 1114.7 148.149 1116.05 139.728 1116.25C135.74 1116.35 133.417 1115.55 130.477 1113.08ZM183.321 1108.71C180.396 1105.48 181.657 1104.16 188.755 1103C193.595 1102.22 194.178 1102.39 194.178 1104.63C194.178 1109.81 186.819 1112.58 183.321 1108.71ZM218.523 1100.77C213.594 1098.2 213.961 1096.27 220.525 1090.24C225.429 1085.74 226.366 1084.26 225.108 1083C224.238 1082.13 223.526 1080.48 223.526 1079.32C223.526 1076.75 244.715 1057.91 248.778 1056.86C254.197 1055.47 259.86 1064.21 254.796 1066.16C253.537 1066.64 253.14 1067.88 253.625 1069.81C254.253 1072.31 253.654 1072.96 249.469 1074.34C243.123 1076.42 238.838 1079.24 238.838 1081.35C238.838 1082.27 240.129 1083.21 241.709 1083.44C243.957 1083.76 244.579 1084.67 244.579 1087.67C244.579 1090.65 243.729 1091.93 240.75 1093.42C238.644 1094.47 235.63 1096.62 234.051 1098.2C232.473 1099.78 230.177 1101.08 228.949 1101.09C227.721 1101.1 225.567 1101.39 224.164 1101.74C222.76 1102.09 220.222 1101.65 218.523 1100.77ZM118.915 1084.96C118.925 1084.35 119.456 1083.02 120.093 1082.01C120.873 1080.78 120.247 1078.2 118.173 1074.11C114.721 1067.3 115.082 1064.66 119.626 1063.52C122.001 1062.93 122.723 1061.89 122.723 1059.1C122.723 1054.79 125.33 1052.2 128.448 1053.39C131.88 1054.71 138.212 1069.01 136.654 1071.92C135.961 1073.22 134.794 1074.28 134.061 1074.28C133.251 1074.28 133.051 1075.74 133.55 1078.01C134.191 1080.93 133.828 1082.04 131.897 1083.08C128.433 1084.93 118.891 1086.32 118.915 1084.96ZM267.808 1082.89C265.756 1080.79 264.995 1078.47 264.995 1074.32C264.995 1069.52 265.504 1068.35 268.185 1066.97C272.543 1064.71 279.715 1065.43 281.454 1068.3C282.591 1070.17 282.307 1071.06 279.96 1072.99C278.264 1074.38 277.603 1075.7 278.366 1076.17C280.317 1077.38 279.937 1081.48 277.664 1083.75C274.843 1086.57 271.098 1086.25 267.808 1082.89ZM214.923 1064.24C211.853 1060.09 211.977 1057.09 215.437 1051.81C216.703 1049.88 217.579 1047.08 217.384 1045.59C217.189 1044.1 218.204 1041.82 219.639 1040.52C223.578 1036.95 223.019 1034.63 218.441 1035.55C215.65 1036.11 214.426 1035.77 213.859 1034.29C212.997 1032.05 216.378 1015.79 218.015 1014.31C218.59 1013.79 221.768 1013.02 225.079 1012.59C230.831 1011.85 231.249 1012.02 234.515 1016.3C237.51 1020.23 237.745 1021.19 236.422 1024.09C235.19 1026.79 235.273 1027.8 236.878 1029.57C237.959 1030.76 238.459 1032.13 237.99 1032.6C237.52 1033.06 237.756 1033.45 238.514 1033.45C240.933 1033.45 237.187 1041.28 233.734 1043.44C231.979 1044.54 230.354 1045.56 230.121 1045.71C229.889 1045.86 230.314 1047.14 231.066 1048.54C232.189 1050.64 231.559 1052.54 227.527 1059.18C221.832 1068.56 218.967 1069.71 214.923 1064.24ZM47.7444 1061.31C46.8753 1060.44 46.1643 1059.02 46.1643 1058.16C46.1643 1057.29 45.0096 1056.22 43.5983 1055.77C42.1871 1055.32 40.1986 1053.35 39.1796 1051.37C36.9158 1047 34.1036 1045.74 32.0656 1048.2C30.0637 1050.61 25.8664 1050.55 24.9252 1048.1C23.7932 1045.15 26.8922 1038.89 31.337 1035.15C34.9228 1032.13 35.3185 1031.09 35.3185 1024.65V1017.5L41.3131 1017.88L47.3078 1018.25L53.8704 1009.9C58.4146 1004.12 61.2999 1001.55 63.2513 1001.55C66.6116 1001.55 69.132 1003.79 69.132 1006.77C69.132 1007.96 69.9933 1009.26 71.046 1009.67C74.5857 1011.03 73.0007 1014.91 66.6905 1020.35C61.4989 1024.82 60.1861 1026.84 59.0476 1032.15C57.9271 1037.38 58.0455 1039.49 59.6877 1043.6C61.6452 1048.49 61.6122 1048.75 58.5293 1052.84C56.7841 1055.16 55.1482 1058.2 54.8941 1059.6C54.3564 1062.57 50.0382 1063.6 47.7444 1061.31ZM317.948 1055.3C317.948 1052.43 319.916 1049.71 326.968 1042.86C334.911 1035.13 335.903 1033.65 335.273 1030.47C334.88 1028.49 335.148 1025.76 335.868 1024.41C336.861 1022.56 336.758 1021.97 335.441 1021.97C332.407 1021.97 328.156 1016.25 328.156 1012.18C328.156 1009.45 329.707 1006.53 333.369 1002.37C338.984 995.99 341.25 995.293 345.863 998.524C348.821 1000.6 349.007 1003.33 346.611 1009.53C345.387 1012.69 347.766 1012.33 353.601 1008.47C359.521 1004.55 364.338 1004.72 364.928 1008.88C365.423 1012.36 358.801 1023.19 346.498 1038.99C336.268 1052.14 327.852 1058.97 321.887 1058.97C318.399 1058.97 317.948 1058.55 317.948 1055.3ZM272.826 1051.74C270.839 1051.18 270.58 1050.25 271.246 1046.09C271.732 1043.05 271.539 1041.1 270.752 1041.1C268.724 1041.1 269.244 1037.08 271.484 1035.44C272.596 1034.63 273.924 1031.98 274.434 1029.56C275.31 1025.4 275.627 1025.18 280.079 1025.53C282.674 1025.74 286.898 1025.33 289.467 1024.62C298.011 1022.26 306.336 1028.79 300.723 1033.45C299.67 1034.32 298.809 1036.07 298.809 1037.34C298.809 1040.59 295.043 1043.97 292.239 1043.24C290.449 1042.77 289.877 1043.32 289.877 1045.53C289.877 1047.14 289.015 1049.16 287.962 1050.04C285.867 1051.77 276.606 1052.82 272.826 1051.74ZM139.598 1048.75C135.662 1046.35 132.931 1041.9 132.931 1037.88C132.931 1036.89 134.633 1034.15 136.714 1031.78C138.794 1029.41 141.077 1025.95 141.786 1024.08C142.495 1022.22 143.937 1020.69 144.99 1020.69C147.922 1020.69 168.578 1009.54 173.255 1005.44C175.535 1003.43 179.023 1001.44 181.005 1001C183.119 1000.54 185.482 998.684 186.722 996.519C187.906 994.453 190.151 992.643 191.826 992.406C194.585 992.016 194.846 991.309 195.196 983.244C195.63 973.268 193.607 972.063 190.722 980.58C189.363 984.591 187.591 986.439 181.927 989.75C178.026 992.031 174.206 993.897 173.438 993.897C172.67 993.897 167.581 996.193 162.128 999C156.676 1001.81 151.596 1004.1 150.84 1004.1C150.083 1004.1 148.803 1002.65 147.996 1000.88C146.212 996.966 144.553 997.341 141.809 1002.28C140.121 1005.31 138.792 1006.07 134.736 1006.3C131.989 1006.45 126.519 1006.94 122.58 1007.4C114.724 1008.3 113.948 1007.87 101.989 995.983L97.0276 991.053L94.5139 993.75C91.4647 997.023 86.2002 997.274 84.753 994.216C84.1719 992.988 83.8287 988.581 83.9903 984.422C84.25 977.741 84.7207 976.521 88.0383 973.924C90.1032 972.309 93.0302 968.354 94.5429 965.136L97.2933 959.285L94.0585 955.441C90.2986 950.974 90.147 950.115 92.7376 947.966C95.0705 946.03 95.1115 945.255 93.0316 942.41C91.524 940.349 91.0732 940.336 86.5401 942.23C78.2631 945.688 75.5119 940.893 81.0336 932.632C87.6 922.809 86.1733 921.172 71.046 921.172C65.6902 921.172 60.2157 920.588 58.8803 919.873C57.5448 919.159 54.9936 916.085 53.2108 913.043C48.8951 905.68 46.3724 903.578 40.3584 902.335C33.5534 900.928 33.246 897.679 39.1109 889.154L43.6972 882.487L40.4648 879.113C36.3545 874.823 36.3389 870.782 40.4223 868.107C42.1768 866.957 43.6123 865.222 43.6123 864.25C43.6123 863.22 44.9304 862.483 46.7703 862.483C49.5502 862.483 49.8426 862.054 49.2123 858.903C48.3727 854.705 49.8053 853.259 57.0101 851.029C59.8172 850.16 65.1198 847.789 68.7936 845.759C73.665 843.068 77.2055 842.069 81.8724 842.069C85.392 842.069 88.2716 841.509 88.2716 840.825C88.2716 840.124 86.6037 839.915 84.4469 840.346C79.7982 841.276 76.2886 838.907 77.9409 835.955C78.6725 834.647 78.4455 833.337 77.2865 832.179C74.0827 828.975 75.321 824.765 81.3614 818.324C90.17 808.931 92.0996 805.76 92.0996 800.675C92.0996 795.29 88.0556 786.611 85.0007 785.439C83.5219 784.871 83.1231 783.731 83.658 781.6C85.089 775.899 81.5554 774.877 70.1636 777.695C66.9004 778.503 66.6276 778.194 64.6835 771.508C63.5582 767.637 61.7211 764.119 60.601 763.689C58.4608 762.868 54.1218 765.216 49.8082 769.529C45.7185 773.618 43.6017 771.694 43.6843 763.962C43.786 754.447 46.0402 748.863 50.927 746.019C54.7744 743.78 55.3264 743.756 59.1344 745.655C63.0715 747.619 65.2127 746.889 65.2844 743.558C65.2947 743.059 70.2818 742.485 76.3658 742.283C83.0326 742.06 87.6141 741.351 87.8968 740.497C88.159 739.704 82.7697 736.981 75.6701 734.318C62.5874 729.411 58.816 726.685 56.4417 720.42C55.6847 718.422 53.9239 716.489 52.5288 716.124C49.4087 715.308 49.4388 714.489 52.939 704.958C55.704 697.43 56.1152 697.024 65.304 692.771C66.3567 692.284 67.5528 689.437 67.962 686.445C68.7683 680.55 71.0976 678.09 80.0616 673.665C87.4645 670.01 90.4078 670.36 93.3896 675.25C94.7802 677.531 95.9201 680.419 95.9228 681.669C95.9295 684.902 99.1409 685.713 102.532 683.338C106.976 680.226 111.899 680.848 116.786 685.138C119.845 687.823 122.472 688.966 125.588 688.966C131.645 688.966 148.82 701.748 150.862 707.776C151.938 710.953 154.181 712.986 160.527 716.535C165.072 719.076 169.128 720.818 169.54 720.406C170.381 719.565 165.776 713.241 157.714 704.164C151.924 697.646 147.76 688.102 144.997 675.012C143.619 668.484 142.466 666.176 139.373 663.756C134.992 660.327 134.631 658.85 137.421 655.767C139.152 653.854 139.153 653.23 137.429 649.925C133.28 641.971 135.74 611.536 141.418 600.556C144.908 593.809 153.105 583.629 156.521 581.802C160.612 579.612 160.553 578.988 155.813 574.248C150.38 568.816 150.979 564.109 157.493 561.053C163.622 558.177 163.582 557.107 157.384 558.154L152.49 558.981L152.338 554.12C152.136 547.694 150.763 534.49 150.021 531.85C149.697 530.696 150.4 528.784 151.583 527.601C153.338 525.846 155.108 525.609 161.196 526.316C167.49 527.046 168.658 526.868 168.658 525.181C168.658 522.678 173.177 514.438 176.564 510.767C179.992 507.051 190.367 502.719 198.004 501.814C201.955 501.346 207.726 501.902 213.826 503.338C226.118 506.233 227.522 505.407 235.647 490.503C242.173 478.532 242.94 473.987 240.007 464.678C237.677 457.285 238.987 455.598 250.305 451.416C258.903 448.238 259.807 448.132 262.609 449.968C265.371 451.777 265.633 451.765 265.633 449.833C265.633 448.67 268.322 444.844 271.609 441.33C276.564 436.033 278.236 435.008 281.399 435.325C284.631 435.648 285.488 436.534 287.008 441.114C288.488 445.573 290.126 447.337 296.358 451.183C300.513 453.747 303.912 456.246 303.912 456.735C303.912 458.045 309.975 460.58 313.223 460.629C317.303 460.69 322.137 465.225 322.286 469.132C322.401 472.143 323.415 472.838 332.012 475.79C344.989 480.246 345.082 480.327 344.085 486.224C343.323 490.738 343.545 491.299 346.547 492.441C348.999 493.373 349.85 494.606 349.856 497.236C349.861 499.183 351.005 502.498 352.4 504.603C353.794 506.709 354.956 509.579 354.982 510.983C355.026 513.342 355.128 513.365 356.34 511.283C357.34 509.566 356.997 508.113 354.895 505.162C350.21 498.582 352.105 494.333 363.279 486.367C368.489 482.653 374.506 479.002 376.651 478.255C381.875 476.434 387.422 478.77 389.44 483.641C390.818 486.966 390.572 487.961 386.997 493.531C382.481 500.569 382.195 502.949 385.05 509.78C386.165 512.448 386.858 516.509 386.59 518.805C386.197 522.166 386.433 522.704 387.801 521.569C389.764 519.939 389.348 515.144 386.783 509.841C385.031 506.218 385.118 506.041 391.312 500.591C397.372 495.259 398.118 493.695 393.397 496.221C389.572 498.268 388.138 496.164 390.13 491.428C392.311 486.239 397.074 486.113 398.461 491.207L399.33 494.397L401.026 490.25C403.085 485.217 406.449 484.849 410.496 489.215C413.095 492.019 413.822 492.19 417.867 490.949C424.133 489.026 426.407 490.231 426.407 495.476C426.407 497.868 427.268 500.54 428.321 501.414C429.373 502.287 430.235 504.08 430.235 505.398C430.235 508.264 431.891 508.496 434.021 505.929C434.873 504.903 436.809 503.691 438.325 503.234C439.84 502.778 445.761 500.172 451.482 497.443C463.316 491.799 466.189 491.464 472.054 495.039C477.063 498.093 479.151 498.229 481.298 495.644C482.228 494.523 483.913 494.019 485.281 494.453C487.036 495.01 487.99 494.315 488.956 491.776C490.068 488.852 490.802 488.455 493.945 489.084C496.513 489.598 497.847 489.257 498.344 487.962C499.175 485.796 505.787 485.475 509.429 487.424C514.274 490.017 512.561 495.233 504.242 503.223C500.031 507.268 496.586 511.06 496.586 511.652C496.586 512.243 498.165 512.909 500.095 513.131C502.618 513.421 503.604 514.251 503.604 516.086C503.604 517.862 505.35 519.455 509.345 521.325C520.995 526.778 526.802 537.221 524.581 548.726C523.982 551.826 523.467 554.791 523.437 555.315C523.406 555.84 521.325 558.544 518.812 561.326L514.243 566.382L517.855 567.091C528.163 569.112 533.238 570.663 535.939 572.616C542.317 577.226 547.183 579.238 551.963 579.239C559.628 579.242 570.126 585.182 580.644 595.466C589.576 604.199 592.301 605.803 604.302 609.388C607.219 610.259 608.435 611.744 609.914 616.241C613.191 626.206 618.495 632.601 626.367 636.082L633.447 639.213L632.802 644.933C632.448 648.079 630.507 653.955 628.49 657.992C626.472 662.028 624.655 665.696 624.45 666.143C624.246 666.589 625.631 668.8 627.529 671.056C630.876 675.032 630.916 675.266 628.858 678.749C626.225 683.207 626.214 683.862 628.769 683.862C629.888 683.862 631.114 685.054 631.496 686.512C631.877 687.969 633.545 689.677 635.204 690.308C637.979 691.363 638.212 692.144 638.126 700.098C638.075 704.852 637.589 711.87 637.046 715.695C636.192 721.715 635.326 723.299 630.596 727.496C625.711 731.831 624.405 732.345 618.278 732.345C611.043 732.345 610.354 732.945 613.17 736.796C614.637 738.802 614.644 740.317 613.216 746.29C610.599 757.228 610.872 758.48 617.166 764.379C623.497 770.312 624.375 774.002 620.325 777.666C618.905 778.952 617.966 780.62 618.239 781.372C618.512 782.125 618.189 783.801 617.522 785.097C616.488 787.102 615.052 787.386 607.85 787.01C599.425 786.571 599.389 786.583 598.2 790.397C593.816 804.46 591.436 809.438 588.193 811.33C586.246 812.466 584.575 814.686 584.365 816.415C583.843 820.702 580.536 822.505 576.083 820.931C573.227 819.921 572.491 818.863 572.429 815.674C572.385 813.477 570.898 809.766 569.118 807.419C562.842 799.138 562.489 797.747 565.406 792.803C568.787 787.073 568.762 786.841 564.213 781.66C559.963 776.82 559.353 773.065 562.406 770.532C564.008 769.203 564.868 769.178 566.553 770.412C567.722 771.269 571.466 773.798 574.871 776.033C580.791 779.918 581.035 780.309 580.416 784.928C580.059 787.585 580.287 789.759 580.922 789.759C581.557 789.759 582.077 788.897 582.077 787.845C582.077 786.658 583.279 785.931 585.242 785.931C587.564 785.931 588.624 786.791 589.217 789.155C589.85 791.675 590.4 792.069 591.738 790.959C592.679 790.178 594.048 789.909 594.781 790.362C597.598 792.103 595.933 789.443 592.285 786.373C590.179 784.602 588.457 782.112 588.457 780.839C588.457 779.46 587.033 778.029 584.931 777.297C580.732 775.833 573.145 769.686 573.145 767.748C573.145 766.995 571.322 763.538 569.094 760.065C566.182 755.528 563.49 753.087 559.524 751.387C554.748 749.34 554.005 748.501 554.005 745.149C554.005 741.352 552.377 740.026 550.816 742.552C550.382 743.254 548.064 743.828 545.666 743.828C541.217 743.828 541.306 743.913 535.18 733.809C533.37 730.825 533.343 730.845 530.381 737.238L527.402 743.667L531.743 751.721C536.819 761.14 537.291 767.326 533.562 775.545C532.174 778.604 531.038 782.122 531.038 783.363C531.038 786.284 527.773 788.972 525.353 788.043C522.125 786.805 521.786 789.574 524.04 798.772C527.775 814.012 525.467 818.314 508.708 827.339C503.796 829.984 499.401 832.747 498.942 833.477C498.483 834.208 497.734 838.019 497.278 841.946C495.299 858.978 487.747 873.345 480.324 874.199C477.078 874.573 476.809 875.036 476.809 880.245C476.809 885.363 476.334 886.23 471.705 889.574C468.897 891.601 464.67 895.091 462.311 897.328C456.141 903.179 443.23 923.175 441.649 929.328C436.768 948.323 433.088 953.51 419.714 960.244C414.863 962.687 408.434 966.952 405.429 969.722C398.813 975.819 393.505 976.424 388.708 971.627C384.452 967.372 384.762 964.491 390.173 958.016C394.142 953.266 394.68 951.852 394.118 947.662C393.208 940.879 395.651 938.667 402.858 939.748C410.062 940.828 412.132 939.552 408.565 936.229C405.215 933.108 401.326 933.85 393.332 939.133C385.244 944.479 379.112 943.982 371.879 937.395C367.482 933.392 366.966 927.438 370.255 918.645L373.091 911.063L370.401 905.508C366.641 897.741 366.84 888.745 370.941 881.032C373.447 876.319 373.841 874.562 372.699 873.187C371.582 871.841 371.611 870.952 372.816 869.5C373.69 868.447 374.191 867.551 373.929 867.508C373.668 867.465 369.538 867.222 364.753 866.968C356.736 866.541 355.742 866.781 352.122 870.015C348.633 873.132 348.155 874.415 347.858 881.452C347.675 885.811 346.779 890.276 345.868 891.373C342.89 894.961 338.606 895.79 333.682 893.733C325.35 890.252 320.487 891.165 312.91 897.632C307.275 902.441 305.502 903.302 302.559 902.655C299.55 901.995 298.944 902.321 298.589 904.791C298.225 907.334 297.029 907.901 289.239 909.221C284.327 910.054 278.872 911.278 277.117 911.943C273.292 913.392 271.538 912.926 265.473 908.846C262.202 906.646 259.9 905.972 257.619 906.544C253.9 907.477 249.712 911.649 248.512 915.613C248.057 917.116 245.974 919.055 243.883 919.921C241.516 920.902 239.771 922.758 239.258 924.843C238.805 926.684 236.611 930.486 234.384 933.293C228.683 940.476 225.424 946.792 225.495 950.517C225.529 952.272 226.826 957.653 228.377 962.476C232.407 975.011 230.377 981.269 219.873 988.692C213.443 993.236 211.538 998.842 213.479 1007.51C214.783 1013.34 214.75 1014.7 213.284 1015.61C212.314 1016.21 210.673 1016.22 209.637 1015.64C208.471 1014.99 207.077 1015.27 205.979 1016.36C204.951 1017.39 201.6 1018.14 198.02 1018.14C194.618 1018.14 190.906 1018.49 189.77 1018.93C186.715 1020.1 183.971 1026.26 183.971 1031.93V1036.92L177.587 1037.68C171.163 1038.44 150.643 1047.18 148.984 1049.87C147.658 1052.01 144.291 1051.61 139.599 1048.75H139.598ZM253.734 1041.42C253.422 1040.9 252.761 1038.01 252.263 1035C251.21 1028.64 252.472 1026.53 258.939 1023.83C262.846 1022.19 263.209 1021.62 262.474 1018.28C261.448 1013.61 262.737 1012.79 268.609 1014.41C275.839 1016.41 276.45 1019.06 271.815 1028.34C268.809 1034.35 266.833 1036.7 263.639 1038.03C261.323 1039 259.067 1040.37 258.627 1041.08C257.693 1042.6 254.556 1042.81 253.734 1041.42ZM252.507 1018.62C249.867 1015.98 254.805 1011.11 258.632 1012.58C261.907 1013.84 260.44 1018.71 256.654 1019.15C254.873 1019.36 253.007 1019.12 252.507 1018.62ZM262.881 1006.63C262.141 1004.51 260.487 1002.21 259.203 1001.52C254.959 999.254 246.615 1000.13 240.633 1003.47C233.527 1007.43 227.968 1007.64 226.023 1004C224.788 1001.69 225.291 1000.69 229.869 996.337C234.78 991.665 235.116 990.904 234.848 985.039C234.678 981.319 235.246 977.925 236.237 976.731C237.637 975.044 237.569 974.329 235.824 972.402C232.785 969.045 233.259 965.945 237.031 964.511C243.113 962.199 252.873 968.933 252.873 975.441C252.873 977.377 255.011 979.31 260.675 982.494C275.891 991.047 279.731 999.13 272.305 1006.97C267.9 1011.63 264.581 1011.51 262.881 1006.63ZM293.169 1006.82C292.791 1006.21 290.891 1005.39 288.946 1005C285.144 1004.23 282.155 998.273 281.775 990.707C281.599 987.206 281.964 986.85 286.049 986.535C296.992 985.691 300.442 983.242 299.228 977.175C298.665 974.357 299.194 972.313 301.184 969.621C302.685 967.592 303.913 965.088 303.913 964.057C303.913 960.556 307.771 958.173 313.437 958.173C319.826 958.173 320.898 959.704 319.71 967.131C318.99 971.636 319.331 972.435 323.682 976.42C329.535 981.782 329.083 984.198 321.182 989.766C317.644 992.26 314.305 996.136 312.32 1000.05C310.568 1003.51 308.2 1006.7 307.057 1007.13C303.959 1008.32 293.958 1008.1 293.169 1006.82ZM347.778 995.492C346.114 990.286 343.954 987.103 341.25 985.871C337.528 984.175 337.575 980.535 341.369 976.742C343.021 975.09 344.726 972.819 345.156 971.696C345.587 970.574 346.676 969.609 347.575 969.552C348.474 969.494 350.645 969.204 352.4 968.905C354.154 968.606 358.582 968.025 362.238 967.613L368.887 966.864L366.235 963.277C364.776 961.305 363.947 959.102 364.392 958.382C364.837 957.662 364.618 956.712 363.905 956.272C361.662 954.886 362.488 951.074 365.682 948.074C368.494 945.432 369.501 945.264 377.485 946.095C382.286 946.595 386.625 947.242 387.128 947.534C387.631 947.826 385.472 951.819 382.33 956.408C379.188 960.997 376.983 965.345 377.432 966.071C378.562 967.9 375.225 969.751 372.388 968.868C370.165 968.175 370.154 968.302 372.179 971.393C374.995 975.69 374.019 976.889 365.75 979.293L358.815 981.309L361.349 986.276C364.751 992.943 364.617 993.556 359.262 995.793C353.082 998.375 348.663 998.259 347.778 995.492H347.778ZM261.805 979.697C256.543 976.506 255.471 975.093 255.445 971.305C255.433 969.63 253.614 967.043 250.959 964.925C248.503 962.966 246.493 960.54 246.493 959.535C246.493 956.943 255.794 941.635 257.385 941.609C258.112 941.596 260.485 943.899 262.658 946.726L266.609 951.866L267.275 947.683C267.748 944.709 267.331 943.032 265.83 941.881C260.193 937.557 259.253 936.229 259.253 932.584C259.253 930.426 259.848 927.549 260.574 926.192C262.444 922.698 270.284 922.854 274.124 926.461L277.037 929.197L282.184 924.547C285.016 921.989 288.536 919.897 290.007 919.897C298.938 919.897 305.339 940.824 298.139 946.487C294.958 948.988 294.944 949.079 297.061 953.518C299.032 957.65 299.041 958.266 297.168 961.124C296.047 962.835 293.284 965.597 291.027 967.264C288.77 968.93 284.251 973.02 280.986 976.354C274.103 983.379 269.269 984.222 261.805 979.697H261.805ZM325.315 957.01L321.158 953.296L323.936 947.579C325.463 944.434 326.41 940.701 326.039 939.281C325.578 937.519 326.21 936.248 328.036 935.271C331.786 933.265 331.37 931.937 326.561 930.566C323.421 929.672 322.319 928.575 322.023 926.049C321.808 924.215 320.516 921.704 319.152 920.47C317.424 918.906 316.672 916.552 316.672 912.706C316.672 907.927 317.088 907.082 319.768 906.41C324.65 905.185 329.754 908.497 333.414 915.267C335.253 918.668 338.372 922.738 340.346 924.312C343.657 926.952 343.814 927.463 342.38 930.926C340.126 936.366 343.419 944.138 347.978 944.138C352.528 944.138 354.574 948.959 352.061 953.755C350.67 956.409 348.587 957.75 343.957 958.97C333.972 961.601 329.985 961.182 325.315 957.01ZM350.805 915.512C348.134 911.789 348.041 907.028 350.504 900.121C351.585 897.087 352.014 893.077 351.561 890.233C350.953 886.422 351.203 885.448 352.789 885.448C353.884 885.448 355.16 886.646 355.625 888.109C356.089 889.573 358.195 893.547 360.304 896.939L364.139 903.108L362.295 910.546C360.61 917.341 360.131 918.011 356.744 918.303C354.049 918.536 352.429 917.775 350.805 915.512ZM560.091 813.824C557.572 807.829 558.006 806.345 562.283 806.345C568.45 806.345 570.657 812.254 566.452 817.509C564.219 820.3 562.36 819.224 560.091 813.824ZM621.632 802.739C621.632 799.936 624.445 798.38 627.437 799.528C630.589 800.738 629.002 804.388 625.13 804.835C622.37 805.153 621.632 804.711 621.632 802.739ZM599.155 798.128C597.937 794.955 599.175 792.213 602.821 790.008C605.562 788.35 606.849 788.199 608.651 789.325C609.923 790.119 612.496 790.476 614.368 790.118C618.436 789.341 620.102 792.242 618.105 796.625C616.955 799.149 615.757 799.53 608.328 799.735C601.969 799.91 599.685 799.51 599.155 798.128ZM1006.34 799.09C1004.23 798.762 1002.01 798.01 1001.4 797.42C1000.8 796.83 998.499 796.633 996.301 796.981C992.972 797.509 991.58 796.863 987.965 793.109L983.626 788.602L984.435 779.041L985.243 769.48L979.546 764.812C972.851 759.327 970.928 754.126 972.692 746.276C973.352 743.341 973.728 740.808 973.528 740.648C973.328 740.489 967.842 737.63 961.337 734.295L949.509 728.233L940.283 709.365C924.393 676.866 924.642 677.522 926.728 673.807C927.728 672.025 931.862 668.6 935.915 666.196L943.284 661.824L942.463 656.353C941.551 650.272 943.464 642.892 946.634 640.266C948.098 639.052 953.257 638.569 964.751 638.569C977.864 638.569 981.701 638.132 985.602 636.193C990.528 633.744 1003.66 621.493 1012.81 610.819C1016.94 605.992 1018.81 604.759 1021.98 604.759C1024.17 604.759 1026.32 605.334 1026.76 606.038C1027.28 606.881 1028.45 606.837 1030.18 605.909C1032.32 604.764 1034.15 605.181 1039.99 608.138C1046.83 611.603 1047.96 611.771 1063.76 611.683C1079.14 611.597 1081.18 611.288 1091.83 607.447C1111.02 600.525 1112.1 600.295 1116.55 602.141C1118.75 603.049 1120.54 604.54 1120.54 605.453C1120.54 606.367 1122.06 608.921 1123.92 611.128C1126.87 614.638 1127.14 615.658 1126.03 619.266C1123.81 626.481 1125.59 628.532 1134.79 629.373C1147.58 630.542 1151.92 632.402 1160.93 640.57C1173.51 651.964 1177.14 651.988 1181.3 640.701C1182.5 637.423 1184.68 633.406 1186.14 631.773C1188.59 629.035 1189.46 628.87 1197.26 629.654L1205.73 630.504L1209.21 625.935C1213.6 620.185 1220.02 618.199 1228.25 620.043C1235.76 621.728 1250.5 619.706 1258 615.959C1261.06 614.433 1266.43 610.736 1269.93 607.744C1276.64 602.019 1280.69 600.737 1290.46 601.25C1295.84 601.532 1296.89 601.093 1301.2 596.781C1306.27 591.714 1306.22 590.671 1301.07 594.044C1298.94 595.444 1296.23 595.891 1292.5 595.461C1275.07 593.452 1270.33 589.648 1260.26 569.605C1253.12 555.379 1252.16 554.097 1245.93 550.385C1241.91 547.994 1237.54 543.922 1234.97 540.178C1232.62 536.752 1228.21 532.044 1225.17 529.716C1219.11 525.071 1216.1 525.042 1209.74 529.568C1207.83 530.924 1205.2 532.035 1203.89 532.035C1200.07 532.035 1196.02 528.473 1195.59 524.735C1195.31 522.342 1194.27 521.076 1192.18 520.589C1190.53 520.204 1188.52 518.38 1187.72 516.536C1185.63 511.76 1169.72 495.035 1167.26 495.035C1165.9 495.035 1165.2 493.922 1165.2 491.766C1165.2 487.728 1171.42 465.641 1173.17 463.457C1174.55 461.727 1181.55 461.322 1183.84 462.839C1184.62 463.354 1186.17 465.547 1187.28 467.713C1188.98 471.031 1189.88 471.563 1193.04 471.099C1195.11 470.796 1197.17 471.152 1197.63 471.891C1199.16 474.369 1202.22 471.83 1206.44 464.587C1217.82 445.05 1220.08 429.168 1212.68 420.702C1210.9 418.662 1210.97 418.186 1213.48 415.517C1215 413.9 1216.24 411.45 1216.24 410.072C1216.24 407.29 1218.8 403.057 1223.71 397.736C1226.85 394.327 1226.9 393.974 1225.42 386.814C1223.36 376.847 1223.45 375.629 1226.72 369.095L1229.54 363.445L1226.57 357.843C1224.93 354.763 1220.64 348.917 1217.03 344.854C1202.88 328.924 1193.27 315.375 1193.27 311.336C1193.27 309.849 1194.19 306.86 1195.31 304.694C1196.96 301.505 1197.05 300.211 1195.81 297.892C1194.97 296.317 1194.66 293.84 1195.12 292.388C1195.98 289.659 1192.81 281.966 1190.82 281.966C1190.22 281.966 1188.73 285.998 1187.52 290.925C1185.2 300.396 1182.49 303.655 1176.94 303.655C1175.29 303.655 1167.06 300.15 1158.66 295.865C1143.64 288.211 1143.28 288.1 1137.68 289.509C1131.28 291.121 1127.38 289.751 1122.1 284.037C1118.3 279.927 1107.39 273.824 1096.62 269.78C1084.34 265.174 1079.26 261.389 1074.74 253.493C1070.15 245.469 1069.71 238.477 1072.54 218.427C1073.89 208.934 1074.76 206.181 1076.93 204.665C1081.12 201.731 1082.62 194.24 1080.45 187.05C1077.94 178.701 1073.22 173.034 1066.71 170.549C1063.52 169.33 1060.65 167.22 1059.92 165.555C1059.22 163.97 1056.73 161.825 1054.38 160.79C1050.29 158.993 1050.12 158.656 1050.72 153.374C1051.47 146.745 1055.75 141.621 1060.54 141.621C1062.38 141.621 1064.43 142.124 1065.1 142.739C1066.3 143.85 1079.98 148.415 1086.1 149.748C1091.51 150.928 1092.4 149.293 1092.86 137.311C1093.09 131.123 1093.9 125.728 1094.66 125.254C1095.42 124.782 1096.24 123.043 1096.49 121.39C1096.83 119.12 1098.47 117.802 1103.2 116.015C1109.76 113.533 1116.18 108.306 1117.4 104.454C1118.31 101.593 1115.18 96.5518 1108.25 89.7283C1098.68 80.3059 1097.71 68.5063 1105.84 60.3752C1108.2 58.0149 1111.41 56.1268 1113.08 56.1128C1114.78 56.0986 1119.78 53.0786 1124.69 49.0956C1129.43 45.2499 1133.63 42.1035 1134.03 42.1035C1134.43 42.1035 1137.26 40.381 1140.32 38.2759C1146.3 34.1581 1148.63 33.6872 1152.58 35.7982C1154.63 36.8963 1155.55 36.5989 1157.52 34.2034C1159.6 31.66 1160.29 31.476 1162.55 32.8535C1166.8 35.4435 1168.88 34.7334 1170.03 30.3017C1170.62 28.0211 1171.64 26.1825 1172.3 26.216C1177.83 26.4972 1189.85 28.5892 1194.44 30.0704C1201.67 32.3999 1204.76 35.2446 1204.76 39.5774C1204.76 44.2853 1208.91 49.1949 1217.41 54.5438C1221.33 57.0094 1225.97 60.3156 1227.72 61.8909C1230.3 64.2076 1232.92 64.8837 1241.42 65.4282C1255.47 66.3276 1261.95 69.508 1268.24 78.5765C1270.87 82.3694 1273.98 85.7874 1275.16 86.1719C1277.7 87.0016 1285.24 84.0449 1289.87 80.4042C1293.13 77.8346 1293.2 77.8333 1297.04 80.2613L1300.91 82.7131L1307.88 78.9945C1315.79 74.7759 1322 74.2809 1329.22 77.2958C1333.29 78.9951 1334.94 79.0684 1339.62 77.7577C1342.68 76.9008 1345.52 76.5332 1345.93 76.9408C1346.34 77.3485 1345.6 79.8678 1344.3 82.5393C1342.54 86.1253 1340.95 87.5635 1338.2 88.0345C1333.69 88.8073 1332.5 91.3327 1336.11 92.4777C1340.4 93.8392 1339.17 96.0529 1331.11 101.439C1323.34 106.638 1322.45 107.697 1324.7 109.086C1327.46 110.79 1325.65 112.008 1318.19 113.476C1310.73 114.943 1310.43 115.151 1311.04 118.383C1311.46 120.56 1310.83 122.854 1309.26 124.844C1306.31 128.595 1306.09 136.165 1308.82 140.061C1310.37 142.273 1312.06 142.897 1316.52 142.897C1320.29 142.897 1322.46 143.515 1322.93 144.721C1324.95 149.983 1311.3 165.461 1299.27 171.558C1291.96 175.262 1285.35 182.329 1275.89 196.575C1267.67 208.943 1262.38 219.775 1261.3 226.427C1260.69 230.175 1261.14 231.525 1263.98 234.363C1268.15 238.529 1268.01 243.591 1263.66 245.745C1258.27 248.417 1257.91 249.666 1262.08 251.12C1266.57 252.686 1266.76 253.765 1264 261.882L1261.99 267.769L1267.19 278.26C1272.78 289.547 1273.77 296.718 1270.88 305.06C1267.8 313.974 1255.46 331.869 1247.44 339.034C1240.52 345.224 1239.65 346.497 1240.91 348.523C1242.02 350.3 1241.99 351.471 1240.79 353.397C1238.73 356.702 1238.77 359.793 1240.88 359.793C1242.89 359.793 1246.99 355.397 1254.37 345.361C1259.33 338.623 1260.16 338.019 1263.48 338.748C1266.87 339.493 1267.23 339.195 1268.48 334.555C1270.49 327.075 1281.98 317.68 1296.84 311.352C1311.15 305.261 1336.05 296 1338.13 296C1338.94 296 1340.62 297.112 1341.85 298.47C1345.41 302.407 1350.76 303.774 1353.92 301.559C1355.39 300.527 1356.6 299.061 1356.6 298.301C1356.6 296.6 1360.47 293.544 1362.7 293.489C1363.61 293.467 1365.45 296.032 1366.81 299.19C1368.16 302.347 1369.89 304.931 1370.65 304.931C1373.16 304.931 1375.74 313.626 1375.74 322.069C1375.74 329.053 1376.14 330.574 1378.29 331.724C1381.82 333.615 1381.5 335.389 1376.73 340.311C1373.17 343.983 1372.83 344.89 1374.18 347.053C1376.26 350.381 1376.14 352.763 1373.82 354.69C1371.13 356.922 1371.39 357.66 1375.74 360.228C1383.75 364.962 1378.62 375.205 1360.39 390.874C1349.75 400.02 1348.81 401.184 1349.68 404.264C1350.2 406.12 1350.67 409.073 1350.74 410.828C1350.8 412.582 1351.57 414.776 1352.45 415.703C1354.45 417.818 1354.5 421.342 1352.56 423.284C1351.43 424.411 1351.89 425.077 1354.48 426.059C1359.35 427.914 1358.7 430.405 1351.81 436.19C1340.02 446.099 1338.93 447.222 1338.12 450.379C1337.34 453.424 1337.47 453.385 1340.89 449.525C1345.07 444.81 1364.55 434.742 1368.39 435.315C1373.62 436.096 1376.34 442.008 1376.82 453.662C1377.27 464.323 1377.24 464.444 1373.32 467.888C1368.49 472.119 1368.36 473.755 1372.66 475.717C1375.79 477.142 1375.92 477.587 1375.12 483.896C1372.84 501.925 1371.55 506.974 1368.5 509.802C1366.8 511.369 1364.87 514.568 1364.2 516.912C1362.58 522.55 1362.6 548.621 1364.22 548.621C1366.34 548.621 1369.27 555.726 1370.11 562.887C1370.78 568.547 1370.34 571.075 1367.58 577.631C1362.89 588.794 1363.17 592.315 1369.25 598.274C1373.06 602.008 1375 603.026 1377.42 602.564C1380.68 601.941 1383.41 603.897 1387.55 609.814C1389.44 612.503 1389.46 613.253 1387.75 617.345C1385.29 623.217 1382.32 626.448 1379.37 626.448C1376.23 626.448 1376.36 628.621 1379.57 629.638C1382.82 630.671 1382.87 634.887 1379.65 636.61C1376.97 638.042 1371.56 636.627 1369.98 634.086C1369.37 633.092 1368.18 633.485 1366.22 635.334C1362.22 639.089 1355.11 640.092 1352.32 637.295C1350.73 635.709 1349.2 635.384 1346.67 636.091C1344.76 636.625 1342.28 636.948 1341.16 636.811C1337.81 636.399 1336.57 639.328 1335.74 649.682C1334.83 660.961 1335.39 663.209 1339.46 664.757C1342.21 665.803 1342.38 666.539 1342.31 676.83C1342.23 687.27 1342.05 687.954 1338.48 691.248C1336.42 693.151 1333.9 696.286 1332.88 698.216C1331.42 700.953 1330.09 701.724 1326.82 701.724C1324.52 701.724 1321.61 700.978 1320.37 700.066C1318.19 698.478 1318.19 698.117 1320.38 691.454C1323.3 682.553 1323.55 673.062 1320.87 673.036C1319.75 673.024 1318.79 671.603 1318.56 669.619C1318.2 666.488 1317.87 666.307 1314.33 667.322C1309.9 668.594 1305.56 667.272 1301.78 663.499C1300.35 662.068 1298.71 660.897 1298.13 660.897C1295.73 660.897 1290.86 667.817 1286.99 676.718C1282.11 687.953 1274.69 699.503 1270.74 702.014C1269.19 703.002 1264.47 705.088 1260.26 706.65C1252.44 709.55 1240.48 717.355 1240.48 719.559C1240.48 720.302 1244.46 720.476 1250.62 720.001C1262.19 719.108 1267.45 720.603 1269.64 725.409C1271.56 729.636 1269.54 734.566 1264 739.128C1258.87 743.358 1258.25 748.116 1262.18 753.107C1265.04 756.752 1265.36 759.401 1263.37 763.116C1262.22 765.259 1261.18 765.525 1256.6 764.838C1252.42 764.21 1250.79 764.505 1249.44 766.131C1243.7 773.037 1228.06 774.369 1208.51 769.614C1194.34 766.166 1165.59 754.519 1154.3 747.652C1142.93 740.737 1134.58 733.951 1134.58 731.625C1134.58 728.545 1126.14 720.263 1119.11 716.435C1112.96 713.086 1102.84 711.341 1100.89 713.291C1100.49 713.688 1100.83 715.757 1101.63 717.887C1103.67 723.286 1102.33 725.677 1096.68 726.727C1094.01 727.224 1091.06 728.718 1090.12 730.048C1088.7 732.051 1087.45 732.323 1082.82 731.628C1077.39 730.814 1077.01 730.991 1069.32 737.947C1064.97 741.883 1060.5 745.164 1059.4 745.239C1058.29 745.314 1056.29 745.457 1054.96 745.558C1051.36 745.831 1047.67 754.105 1046.47 764.599C1044.54 781.432 1039.15 791.412 1029.52 795.983C1023.96 798.624 1012.88 800.109 1006.34 799.09ZM623.163 792.055C620.979 789.872 621.27 784.714 623.627 783.81C627.009 782.512 631.84 785.54 631.84 788.957C631.84 793.251 626.328 795.219 623.163 792.055ZM623.471 765.434C622.112 763.933 619.364 761.858 617.363 760.824C613.463 758.807 613.495 759.176 615.981 744.785C616.749 740.338 617.119 740 621.217 740H625.626L625.015 747.336C624.511 753.392 624.84 755.142 626.901 757.364C630.061 760.773 630.698 767.17 627.934 767.747C626.838 767.976 624.829 766.935 623.471 765.434ZM932.835 745.25C930.288 743.188 930.108 742.55 931.574 740.784C932.907 739.179 932.948 738.32 931.763 736.892C930.031 734.805 931.236 731.759 935.221 728.153C938.162 725.492 941.903 726.476 941.903 729.911C941.903 731.23 942.611 734.954 943.476 738.187C944.909 743.546 944.831 744.225 942.594 745.861C939.263 748.297 936.375 748.116 932.835 745.25ZM922.826 735.013C921.75 733.002 920.602 732.649 917.031 733.229C909.139 734.509 906.753 729.727 910.642 720.421C913.251 714.177 913.183 713.871 907.991 708.425C901.241 701.348 900.231 698.656 898.449 683.001C896.977 670.074 897.026 668.436 898.978 665.458C902.913 659.452 911.28 662.801 911.28 670.382C911.28 672.712 912.141 675.333 913.194 676.207C914.247 677.081 915.108 678.835 915.108 680.105C915.108 681.375 916.316 682.798 917.794 683.267C920.095 683.997 920.333 684.694 919.455 688.137C916.453 699.911 919.269 709.154 927.015 712.953C933.725 716.243 933.969 721.59 927.685 727.619C926.086 729.153 925.545 730.9 926.047 732.902C927.008 736.729 924.592 738.312 922.826 735.013ZM921.773 697.672C920.052 695.951 921.945 692.793 924.697 692.793C926.959 692.793 927.962 696.016 926.237 697.741C924.426 699.552 923.641 699.539 921.773 697.672V697.672ZM43.6272 673.924C41.6727 672.341 40.5911 669.721 40.1023 665.385C39.5626 660.597 38.5551 658.422 35.8062 656.109C33.7397 654.37 31.8657 651.225 31.3919 648.699C30.939 646.285 30.1778 644.31 29.7003 644.31C29.2229 644.31 27.2645 647.506 25.3486 651.413C22.4905 657.24 21.3543 658.443 19.0218 658.111C16.6285 657.771 16.1787 656.908 16.1787 652.656C16.1787 648.097 15.6812 647.322 11.0748 644.703C8.26765 643.107 4.67895 641.791 3.09992 641.78C-2.40867 641.739 -0.477865 635.449 8.11305 625.447C12.2258 620.659 12.6058 616.925 9.6178 610.659C6.87255 604.903 7.77823 603.025 14.232 601.092C20.7787 599.13 24.5224 601.029 26.9278 607.531C27.7917 609.865 29.5949 614.216 30.9349 617.198C33.3133 622.492 33.5178 622.621 39.5272 622.621C46.3353 622.621 51.2682 625.869 51.2682 630.353C51.2682 631.798 52.6061 633.492 54.388 634.304C58.9876 636.399 59.3759 639.053 55.8343 644.19C51.9291 649.854 51.0402 659.667 54.1225 663.087C57.103 666.393 58.2307 672.054 56.3584 674.31C54.1984 676.912 47.0503 676.695 43.6272 673.924ZM988.782 619.75C987.597 616.632 989.449 609.773 991.817 608.506C993.787 607.452 994.219 605.744 994.219 599.005C994.219 591.291 994.437 590.677 997.803 588.936C1003.14 586.179 1004.41 587.869 1004.97 598.467C1005.65 611.304 1005.04 613.094 998.481 617.521C992.36 621.652 989.734 622.255 988.782 619.75ZM1095.85 595.531C1094.86 591.731 1096.67 590.151 1099.99 591.927C1103.16 593.627 1103.51 596.513 1100.66 597.605C1097.39 598.86 1096.64 598.536 1095.85 595.531ZM34.6015 589.878C33.6197 587.296 32.9536 586.837 31.8259 587.965C29.9724 589.818 23.6326 589.91 22.5138 588.1C21.0822 585.784 23.0975 580.662 26.0826 579.029C27.6534 578.17 31.2353 577.149 34.0425 576.76C38.2733 576.173 39.4586 575.342 40.9717 571.905C43.8259 565.421 45.1053 566.226 50.9973 578.21C51.2358 578.695 49.62 580.028 47.4065 581.173C44.1341 582.865 43.523 583.815 44.1363 586.259C45.7498 592.687 36.9408 596.031 34.6015 589.878ZM1087.87 586.154C1088.29 585.044 1088.64 583.914 1088.64 583.643C1088.64 583.371 1089.47 583.466 1090.47 583.853C1092.77 584.732 1091.6 588.172 1089.01 588.172C1087.79 588.172 1087.37 587.442 1087.87 586.154ZM1073.61 562.458C1073.92 561.514 1075.2 560.543 1076.45 560.301C1077.91 560.019 1078.52 560.478 1078.16 561.576C1077.84 562.521 1076.56 563.492 1075.31 563.734C1073.86 564.016 1073.24 563.556 1073.61 562.458ZM1074.05 539.987C1073.01 538.945 1075.92 535.862 1077.95 535.862C1080.64 535.862 1080.04 539.305 1077.23 540.04C1075.87 540.396 1074.44 540.373 1074.05 539.987V539.987ZM1082.26 538.414C1082.26 537.712 1082.87 537.138 1083.61 537.138C1084.36 537.138 1084.61 537.712 1084.18 538.414C1083.74 539.116 1083.13 539.69 1082.82 539.69C1082.51 539.69 1082.26 539.116 1082.26 538.414ZM1091 527.012C1090.53 523.649 1090.62 523.11 1091.69 523.212C1092.31 523.272 1093.3 522.555 1093.89 521.618C1095.34 519.279 1099.49 521.895 1099.49 525.156C1099.49 526.946 1098.42 527.672 1095.34 527.969C1093.06 528.189 1091.11 527.758 1091 527.012ZM584.948 523.534C582.802 522.669 582.936 518.033 585.267 512.455C587.623 506.816 587.663 499.259 585.359 495.099C582.993 490.826 583.88 489.033 592.059 481.563C597.112 476.947 598.891 474.499 598.304 472.969C597.642 471.244 596.405 470.977 591.926 471.591C588.025 472.125 585.826 471.819 584.543 470.562C583.537 469.577 580.793 467.985 578.444 467.024C576.095 466.063 570.207 461.638 565.36 457.19C555.464 448.11 553.038 447.491 544.167 451.785C537.234 455.141 535.168 454.626 523.302 446.584C518.1 443.057 512.859 440.172 511.654 440.172C510.45 440.172 508.434 441.649 507.173 443.455C500.836 452.526 499.587 453.491 494.452 453.286C491.714 453.177 483.753 451.038 476.761 448.533C455.21 440.81 446.041 438.566 443.226 440.324C440.082 442.288 436.615 440.954 436.615 437.781C436.615 436.422 438.625 432.905 441.081 429.966C443.537 427.026 445.613 423.957 445.694 423.147C446.062 419.454 445.169 416.387 443.108 414.266C441.168 412.27 440.397 412.179 437.317 413.582C433.956 415.114 433.557 414.945 429.961 410.463C427.87 407.857 425.498 405.735 424.688 405.748C423.879 405.761 421.495 408.488 419.389 411.808C415.623 417.747 415.428 417.86 407.317 418.754C397.339 419.854 393.621 422.381 390.796 429.98C388.445 436.302 387.678 436.504 373.96 434.403C370.348 433.85 367.066 434.049 365.439 434.92C361.552 437 359.188 435.526 355.476 428.707C353.652 425.355 350.8 421.885 349.139 420.996C346.468 419.567 345.588 419.785 341.523 422.886C338.995 424.813 333.417 427.766 329.126 429.448C322.041 432.224 321.125 432.323 319.136 430.523C317.932 429.434 315.35 428.115 313.398 427.593C311.447 427.072 309.232 425.64 308.476 424.412C307.345 422.573 307.891 421.532 311.569 418.509C315.818 415.016 316.036 414.443 316.056 406.684C316.081 397.023 318.656 392.071 323.971 391.458C326.334 391.186 327.629 390.211 327.898 388.5C329.327 379.419 333.295 376.586 337.726 381.483C344.596 389.072 346.768 379.749 342.164 362.437C339.756 353.384 339.743 352.814 341.87 349.679C343.095 347.874 344.789 344.818 345.635 342.888C346.783 340.27 348.08 339.375 350.744 339.364C355.304 339.345 369.716 331.323 369.347 329.01C369.194 328.047 368.699 325.697 368.249 323.787C367.575 320.936 367.98 320.064 370.516 318.909C372.214 318.136 374.237 315.822 375.013 313.769C376.813 309 380.651 308.875 384.263 313.467C386.768 316.651 387.011 316.719 387.617 314.402C389.889 305.713 396.832 291.445 399.883 289.195C403.13 286.8 403.893 286.745 412.21 288.314C424.349 290.605 430.179 289.524 444.066 282.407L455.984 276.3L463.844 279.287C475.072 283.555 481.341 284.226 471.704 280.129C467.494 278.339 463.95 276.871 463.829 276.868C463.708 276.864 462.957 274.889 462.161 272.477L460.714 268.092L452.06 268.817C444.135 269.481 443.172 269.29 440.617 266.548C438.196 263.949 437.93 262.619 438.607 256.492C439.509 248.332 438.257 244.308 432.646 237.325C429.965 233.99 428.451 230.48 428.012 226.582C427.412 221.265 427.726 220.426 431.859 216.293C434.335 213.818 437.186 211.793 438.197 211.793C440.087 211.793 442.995 206.73 442.995 203.44C442.995 201.086 445.126 201.101 451.932 203.502C457.011 205.294 457.619 205.253 461.343 202.867C468.911 198.019 472.486 193.91 476.382 185.585C480.929 175.87 480.734 172.997 474.881 163.486C471.713 158.338 470.989 155.861 471.212 150.941C471.365 147.569 470.737 143.605 469.816 142.132C467.027 137.673 469.118 133.678 476.933 128.532C481.805 125.324 485.636 123.759 488.617 123.759C492.148 123.759 493.999 122.731 497.691 118.725C503.881 112.005 507.122 111.012 522.021 111.27L534.665 111.489L546.568 105.503C553.115 102.211 559.455 99.517 560.657 99.5171C561.859 99.5173 565.756 100.666 569.317 102.069C578.299 105.609 583.036 105.436 584.829 101.501C586.552 97.7208 589.141 96.5591 592.198 98.1949C593.452 98.8661 596.564 99.0767 599.112 98.6631C602.154 98.1697 604.476 98.5163 605.868 99.6711C607.232 100.803 611.223 101.431 617.044 101.431C624.266 101.431 627.622 102.145 633.63 104.958C637.772 106.898 641.385 108.261 641.658 107.987C641.932 107.714 639.216 105.377 635.622 102.796C628.414 97.6177 628.753 99.1975 631.429 83.2501C632.061 79.4777 631.832 79.1035 628.883 79.1035C625.327 79.1035 621.632 76.1315 621.632 73.271C621.632 72.2685 620.716 71.4483 619.596 71.4483C618.476 71.4483 615.842 70.4436 613.742 69.2156C610.102 67.0866 609.96 66.6862 610.703 60.6035C611.815 51.4912 616.409 39.7052 619.493 38.0553C623.023 36.166 641.67 37.5506 647.933 40.1671C657.449 44.1431 661.056 49.8442 665.092 67.2944C668.913 83.811 669.787 85.4793 676.087 88.2659C681.35 90.5935 681.604 90.9563 681.604 96.1558C681.604 101.264 679.297 111.216 676.361 118.781C675.653 120.605 672.811 123.369 670.045 124.923C667.279 126.478 665.016 128.325 665.016 129.029C665.016 129.733 666.451 132.19 668.206 134.49C669.96 136.79 671.396 139.687 671.396 140.927C671.396 142.167 669.386 148.547 666.93 155.104C662.074 168.066 661.442 172.241 664.333 172.241C667.616 172.241 668.777 176.349 666.813 181.018C665.825 183.369 665.016 188.4 665.016 192.197V199.1L668.528 197.284C670.459 196.285 673.185 194.202 674.586 192.655C678.32 188.529 683.86 186.018 687.09 186.987C688.634 187.45 692.089 189.92 694.767 192.475C699.474 196.965 699.699 197.038 701.466 194.644C702.472 193.282 703.295 191.163 703.295 189.935C703.295 183.434 709.781 187.3 713.748 196.164C715.083 199.146 716.92 201.586 717.831 201.586C719.78 201.586 723.711 197.533 723.711 195.523C723.711 192.968 730.28 186.276 732.788 186.276C734.147 186.276 740.555 190.231 747.029 195.065C753.504 199.9 763.299 205.913 768.797 208.429C776.195 211.814 780.68 214.96 786.048 220.531C796.852 231.744 800.304 233.472 811.911 233.478C821.25 233.483 822.495 233.865 843.172 243.066C866.167 253.299 870.116 256.13 867.695 260.652C866.677 262.555 866.658 263.478 867.631 263.802C868.388 264.055 871.321 265.937 874.148 267.985C879.881 272.137 882.422 276.319 883.789 283.856C885.259 291.957 886.534 293.448 891.988 293.448C897.919 293.448 900.838 296.302 902.507 303.731C903.226 306.93 905.239 310.519 907.496 312.627C909.813 314.792 911.28 317.447 911.28 319.477C911.28 322.487 911.744 322.793 916.312 322.793C921.853 322.793 925.316 326.08 925.316 331.341C925.316 335.327 929.073 337.355 943.481 341.145C962.337 346.105 971.018 351.282 984.726 365.741C990.495 371.827 991.742 372.552 996.445 372.552C1007.13 372.552 1010.71 375.953 1008.16 383.677C1006.92 387.433 1007.04 388.266 1009.03 389.722C1011.04 391.185 1011.13 391.875 1009.75 394.904C1008.88 396.826 1008.45 398.685 1008.8 399.036C1009.15 399.386 1012 399.027 1015.13 398.238C1023.65 396.094 1024.84 397.027 1024.84 405.816C1024.84 413.761 1023.21 415.931 1017.24 415.931C1014.5 415.931 1012.08 420.151 1012.08 424.945C1012.08 426.817 1012.97 427.414 1015.77 427.414C1017.8 427.414 1020.81 428.512 1022.47 429.855L1025.48 432.296L1022.66 436.11L1019.85 439.923L1023.04 440.724C1027.73 441.902 1028.11 444.734 1024.25 449.792C1015.16 461.718 1012.5 461.947 1002.13 451.706C993.155 442.841 989.003 441.219 984.898 444.973C980.381 449.104 977.025 449.497 971.282 446.567C968.411 445.103 963.434 443.853 960.221 443.788C954.922 443.682 953.947 444.158 949.736 448.906C944.47 454.845 932.535 463.138 929.254 463.138C928.053 463.138 925.432 464.847 923.43 466.936C918.11 472.489 913.25 473.709 902.977 472.068C888.13 469.696 882.656 466.407 872.203 453.576C866.993 447.18 866.023 446.552 861.365 446.552C858.55 446.552 853.39 447.781 849.897 449.284C840.917 453.146 837.566 451.537 837.027 443.104L836.635 436.983L830.961 436.578C827.84 436.356 819.3 437.155 811.984 438.355C802.564 439.9 795.236 440.311 786.874 439.761C773.085 438.856 773.24 438.76 767.119 451.84C762.579 461.541 760.217 464.067 754.643 465.181C751.357 465.839 750.078 465.359 747.39 462.459C744.278 459.101 742.959 454.207 745.166 454.207C747.48 454.207 750.789 444.113 751.432 435.091C752.316 422.686 753.725 421.035 763.424 421.035C769.279 421.035 770.697 420.656 770.153 419.238C768.342 414.52 757.739 413.872 752.781 418.176C751.573 419.225 749.396 419.766 747.927 419.382C744.479 418.48 742.851 422.537 742.851 432.026C742.851 440.005 740.755 444.868 735.36 449.407C733.295 451.144 730.456 454.801 729.051 457.533C727.646 460.265 724.718 464.94 722.544 467.922C718.378 473.637 714.558 474.822 709.827 471.868C708.526 471.055 706.592 470.724 705.53 471.131C704.468 471.539 700.32 477.985 696.312 485.456C687.885 501.166 683.258 506.898 676.024 510.588C671.569 512.86 669.416 513.122 660.718 512.451L650.596 511.671L645.68 516.111C638.822 522.307 634.13 522.197 630.988 515.767C628.974 511.645 628.088 511.008 624.591 511.161C622.359 511.26 614.218 514.274 606.501 517.86C593.408 523.943 588.902 525.13 584.948 523.534H584.948ZM1116.71 523.103C1116.71 522.402 1117.32 521.828 1118.06 521.828C1118.81 521.828 1119.06 522.402 1118.63 523.103C1118.19 523.805 1117.59 524.379 1117.28 524.379C1116.97 524.379 1116.71 523.805 1116.71 523.103ZM1123.09 522.434C1123.09 520.332 1128.94 517.521 1130.86 518.704C1132.72 519.853 1132.21 522.759 1130.01 523.605C1126.4 524.987 1123.09 524.426 1123.09 522.434ZM1143.08 515.874C1142.62 515.406 1142.23 513.683 1142.23 512.046C1142.23 509.962 1142.97 509.069 1144.68 509.069C1150.96 509.069 1153.39 512.893 1148.7 515.403C1145.83 516.935 1144.28 517.066 1143.08 515.874ZM1153.72 515.448C1153.72 514.747 1154.29 514.172 1154.99 514.172C1155.69 514.172 1156.27 514.747 1156.27 515.448C1156.27 516.15 1155.69 516.724 1154.99 516.724C1154.29 516.724 1153.72 516.15 1153.72 515.448ZM1160.55 503.353C1161 502.171 1161.37 500.965 1161.37 500.672C1161.37 500.378 1162.28 500.138 1163.38 500.138C1166.22 500.138 1165.11 504.462 1162.13 505.037C1160.32 505.386 1159.93 504.969 1160.55 503.353ZM921.541 489.358C919.222 486.563 921.967 483.552 926.833 483.552C930.178 483.552 930.545 483.936 930.185 487.06C929.875 489.754 929.015 490.658 926.482 490.952C924.647 491.166 922.455 490.459 921.541 489.358ZM1157.54 489.931C1157.54 489.229 1158.08 488.655 1158.74 488.655C1159.41 488.655 1160.3 489.229 1160.73 489.931C1161.17 490.633 1160.63 491.207 1159.53 491.207C1158.44 491.207 1157.54 490.633 1157.54 489.931ZM933.618 481.83C930.721 477.408 932.887 470.135 937.442 468.992C939.135 468.567 942.258 465.785 944.382 462.808C946.506 459.832 949.899 455.501 951.921 453.183C955.45 449.14 955.876 449.002 962.468 449.752C976.217 451.316 978.33 453.02 974.151 459.171C972.907 461.002 971.599 463.935 971.245 465.69C970.723 468.28 969.742 468.952 966.025 469.263C962.268 469.578 961.126 470.379 959.651 473.729C957.602 478.38 949.523 482.972 941.07 484.289C936.333 485.027 935.542 484.766 933.618 481.83ZM1007.94 477.492C1005.41 476.919 1005.01 475.199 1007.1 473.907C1007.87 473.432 1009.36 473.904 1010.41 474.957C1012.54 477.079 1011.37 478.272 1007.94 477.492ZM984.074 474.713C981.571 472.789 981.248 471.946 982.457 470.49C983.633 469.073 983.557 468.128 982.116 466.223C979.086 462.22 979.796 460.586 984.563 460.586C987.822 460.586 989.15 459.933 989.753 458.035C990.872 454.507 995.025 454.81 1000.85 458.846C1005.89 462.342 1007.04 465.258 1003.84 466.483C1002.58 466.967 1002.21 468.313 1002.68 470.664C1003.33 473.944 1003.02 474.214 996.784 475.652C988.301 477.61 987.795 477.573 984.074 474.713ZM1008.25 467.603C1008.25 466.551 1009.12 465.69 1010.17 465.69C1011.22 465.69 1012.08 466.551 1012.08 467.603C1012.08 468.656 1011.22 469.517 1010.17 469.517C1009.12 469.517 1008.25 468.656 1008.25 467.603ZM1036.01 267.829C1032.75 265.93 1033.27 263.363 1037.52 260.332C1040.04 258.538 1041.4 256.353 1041.67 253.673C1041.92 251.141 1043.31 248.761 1045.47 247.158C1050.29 243.571 1054.41 244.961 1057.12 251.094C1060.05 257.74 1059.88 258.808 1055.78 259.803C1053.85 260.271 1050.12 262.579 1047.49 264.931C1042.52 269.364 1039.82 270.047 1036.01 267.829ZM1056.03 239.299C1052.6 236.75 1055.03 232.845 1060.05 232.845C1064.15 232.845 1065.69 236.13 1063.07 239.285C1061.13 241.626 1059.17 241.63 1056.03 239.299V239.299ZM1033.59 234.743C1029.18 232.414 1028.96 231.974 1029.13 226.187C1029.3 220.28 1029.44 220.074 1033.46 219.686C1036.45 219.398 1037.6 218.649 1037.6 216.989C1037.6 215.726 1039.86 213.13 1042.61 211.221C1045.37 209.312 1047.93 206.938 1048.31 205.944C1048.69 204.951 1049.79 204.138 1050.74 204.138C1052.96 204.138 1056.07 216.806 1054.29 218.584C1053.61 219.264 1053.37 221.389 1053.75 223.306C1054.65 227.809 1052.5 231.721 1047.41 234.822C1042.37 237.895 1039.53 237.878 1033.59 234.743ZM354.015 232.089C353.529 230.232 352.227 229.655 348.516 229.655C343.01 229.655 338.364 225.208 338.364 219.938C338.364 216.786 340.105 215.989 348.443 215.327C353.289 214.942 354.443 213.456 355.637 206.061C356.708 199.429 368.042 187.552 373.299 187.552C375.183 187.552 376.914 186.834 377.147 185.957C379.501 177.1 379.678 176.905 387.494 174.566C396.935 171.74 400.774 171.666 404.445 174.237C406.741 175.845 407.23 177.271 406.962 181.573L406.629 186.914L410.923 186.494C420.833 185.524 425.464 190.499 424.171 200.725C423.395 206.857 419.698 208.99 413.558 206.85C410.491 205.781 408.993 205.787 407.683 206.874C406.716 207.676 401.784 208.58 396.723 208.883C387.151 209.455 384.304 210.668 384.292 214.182C384.276 218.928 381.356 226.225 377.946 230.042C374.487 233.915 373.807 234.131 364.477 234.322C355.789 234.5 354.578 234.242 354.015 232.089V232.089ZM388.127 222.232C388.127 220.792 388.687 218.142 389.372 216.342C390.35 213.769 391.49 213.069 394.704 213.069C396.953 213.069 400.724 212.37 403.086 211.516C407.774 209.821 411.414 211.086 412.118 214.655C412.532 216.756 404.407 221.158 397.697 222.467C395.592 222.878 392.577 223.582 390.998 224.032C388.688 224.69 388.127 224.338 388.127 222.232ZM981.459 217.333C980.406 216.918 977.686 215.459 975.414 214.091C971.376 211.661 971.326 211.521 973.203 207.893C976.477 201.56 988.191 197.601 992.097 201.506C994.187 203.595 995.495 203.123 995.495 200.279C995.495 198.686 996.738 197.223 998.736 196.463C1001.52 195.405 1001.78 194.861 1000.58 192.619C998.547 188.822 1000.13 185.411 1004.67 183.831C1010.11 181.934 1013.7 182.094 1019.71 184.5C1024.2 186.298 1025.39 186.33 1029.33 184.759L1033.82 182.967L1030.01 177.923C1027.91 175.149 1026.17 172.169 1026.15 171.302C1026.12 169.647 1033.92 165.862 1037.37 165.862C1038.96 165.862 1044.33 168.91 1050.31 173.209C1050.64 173.443 1050.24 174.699 1049.42 176C1048.16 178.033 1048.45 178.577 1051.53 179.85C1053.49 180.665 1057.29 183.57 1059.96 186.305C1064.09 190.53 1064.9 192.295 1065.36 198.027C1065.99 205.992 1064.12 211.793 1060.91 211.793C1058.47 211.793 1051.64 201.699 1051.64 198.089C1051.64 195.278 1049.62 197.322 1046.78 202.996C1044.66 207.255 1044.48 207.328 1036.33 207.328C1029.06 207.328 1026.97 207.933 1019.45 212.204C1011.45 216.751 1010.24 217.062 1001.59 216.803C996.482 216.65 990.295 216.877 987.839 217.307C985.382 217.736 982.511 217.748 981.459 217.333V217.333ZM330.759 213.768C327.146 209.415 332.515 204.589 339.816 205.627C344.555 206.301 344.151 209.862 338.991 212.906C333.541 216.122 332.779 216.201 330.759 213.768ZM361.733 186.551C360.747 185.924 360.477 183.673 360.957 180.09C361.776 173.989 364.293 172.241 372.261 172.241C378.243 172.241 377.928 174.65 371.015 181.761C365.218 187.726 364.314 188.192 361.733 186.551ZM971.889 183.501C968.767 181.699 963.595 176.325 963.595 174.884C963.595 174.304 964.479 173.097 965.558 172.2C966.638 171.304 968.701 167.829 970.143 164.478C972.039 160.072 973.969 157.814 977.112 156.322C979.503 155.188 981.459 153.436 981.459 152.43C981.459 149.525 987.925 148.475 989.824 151.072C991.122 152.846 993.132 153.173 1000.79 152.855L1010.17 152.466V157.533C1010.17 161.391 1009.54 162.915 1007.51 163.922C1006.05 164.649 1005.13 166.051 1005.46 167.037C1006.6 170.465 1002.02 172.159 993.71 171.383C984.832 170.554 983.851 171.177 981.186 179.332C979.409 184.772 976.415 186.114 971.889 183.501ZM402.876 170.419C397.713 168.822 395.873 166.746 398.295 165.249C399.159 164.715 398.654 163.582 396.931 162.188C394.705 160.385 394.367 159.197 395.113 155.801C396.343 150.202 407.731 138.53 414.604 135.824C422.645 132.658 430.612 135.453 423.855 139.069C422.451 139.82 421.303 141.497 421.303 142.795C421.303 144.093 419.837 146.115 418.045 147.289L414.788 149.423L418.683 153.859C420.826 156.299 422.579 159.383 422.579 160.712C422.579 163.837 419.249 167.138 416.095 167.138C414.735 167.138 412.639 168.286 411.437 169.69C410.235 171.093 408.949 172.181 408.579 172.108C408.208 172.034 405.642 171.274 402.876 170.419ZM944.136 158.12C938.83 155.319 938.362 153.808 941.44 149.414C943.257 146.821 944.292 146.518 949.379 147.091C953.838 147.594 956.324 147.121 959.83 145.103C965.245 141.987 968.292 142.745 969.487 147.505C970.767 152.605 968.755 154.714 959.666 157.795C949.596 161.209 949.972 161.201 944.136 158.12ZM426.088 152.966C423.355 151.418 423.136 145.644 425.772 144.633C426.826 144.228 429.16 144.267 430.958 144.718C433.37 145.323 434.123 146.242 433.827 148.218C433.268 151.943 428.953 154.59 426.088 152.966V152.966ZM931.695 150.355C931.695 148.129 932.012 147.95 933.609 149.276C934.662 150.149 935.523 151.02 935.523 151.209C935.523 151.399 934.662 151.885 933.609 152.289C932.284 152.798 931.695 152.203 931.695 150.355ZM1013.36 148.862C1010.97 147.626 1010.23 146.307 1010.43 143.622C1010.76 139.039 1010.85 138.97 1017.84 137.664C1021.58 136.965 1025.78 134.871 1029.41 131.9C1034.9 127.405 1043.65 124.499 1047.39 125.934C1048.66 126.42 1048.45 127.352 1046.52 129.804C1045.13 131.58 1043.98 133.559 1043.98 134.201C1043.98 136.796 1035.24 143.976 1028.2 147.162C1019.74 150.989 1017.88 151.202 1013.36 148.862ZM1071.97 133.108C1070.04 128.034 1071.31 126.31 1076.96 126.31C1083.28 126.31 1085.78 128.908 1083.75 133.365C1082.62 135.855 1081.36 136.517 1077.79 136.517C1074.06 136.517 1073.04 135.919 1071.97 133.108ZM684.155 123.218C684.155 115.608 684.43 114.81 688.004 112.054C690.121 110.422 693.506 107.794 695.525 106.216C697.545 104.637 700.55 103.336 702.203 103.325C707.133 103.293 708.861 101.308 709.606 94.8216C710.154 90.0505 710.956 88.3902 713.184 87.413C714.763 86.7203 716.055 85.7156 716.055 85.1802C716.055 84.6449 716.983 84.2069 718.117 84.2069C719.647 84.2069 720.017 85.0582 719.551 87.4987C719.205 89.3092 719.394 92.8862 719.972 95.4477C720.684 98.6042 720.528 100.73 719.487 102.044C718.642 103.11 716.519 106.759 714.77 110.151C711.012 117.438 708.358 119.171 702.607 118.092C698.551 117.331 698.364 117.467 698.467 121.096C698.527 123.186 697.614 126.362 696.44 128.155C694.742 130.745 693.263 131.414 689.23 131.414H684.155V123.218ZM896.222 130.155C893.906 129.607 891.613 128.76 891.127 128.274C890.641 127.788 890.239 123.846 890.235 119.514L890.225 111.638L899.977 110.845C905.34 110.409 912.948 109.65 916.883 109.159L924.04 108.265V114.117C924.04 119.35 923.601 120.236 919.893 122.497C917.612 123.887 914.967 125.027 914.016 125.03C913.065 125.033 910.58 126.47 908.495 128.224C904.523 131.566 903.115 131.788 896.222 130.155ZM942.171 120.903C937.716 118.757 939.165 115.536 944.795 115.069C950.477 114.598 952.83 117.869 948.885 120.753C946.141 122.76 946.032 122.762 942.171 120.903ZM725.628 116.115C724.497 112.552 725.827 111 730.01 111C734.684 111 737.433 114.044 735.194 116.741C732.814 119.61 726.609 119.203 725.628 116.115ZM1066.49 117.77C1065.05 116.333 1065.61 114.828 1067.59 114.828C1068.64 114.828 1069.5 115.368 1069.5 116.028C1069.5 117.637 1067.51 118.789 1066.49 117.77ZM958.673 115.322C956.595 113.866 955.94 112.448 956.434 110.479C957.071 107.941 956.729 107.742 952.574 108.227C949.558 108.579 945.88 107.759 941.706 105.804C936.021 103.142 934.834 103 929.7 104.373C921.112 106.67 919.98 106.432 920.446 102.429C920.715 100.119 922.34 97.9976 925.316 96.0719C930.265 92.8691 931.005 92.2362 935.338 87.4947C938.87 83.6311 943.426 83.2809 953.036 86.1346C960.515 88.3555 962.322 87.8978 972.976 81.0834C978.849 77.3267 982.098 76.24 990.673 75.1649C996.449 74.4407 1001.44 73.5888 1001.75 73.2718C1002.07 72.9549 1001.08 70.4708 999.549 67.7517C998.021 65.0325 996.771 62.2093 996.771 61.4778C996.771 58.9492 1000.79 56.1379 1004.41 56.1379C1010.45 56.1379 1012.08 54.9288 1012.08 50.4578C1012.08 45.8604 1015.33 42.1035 1019.3 42.1035C1022.33 42.1035 1031.14 47.7534 1039.28 54.924L1045.14 60.0793L1050.19 56.7375C1055.23 53.4011 1071.11 49.6699 1072.86 51.4122C1073.34 51.8976 1072.83 53.303 1071.72 54.5353C1070.61 55.7676 1069.29 58.4011 1068.8 60.3875C1068.3 62.3739 1067.11 64.3013 1066.15 64.6706C1063.62 65.6403 1063.99 66.8362 1067.26 68.275C1071.57 70.1723 1071.62 73.7326 1067.36 75.4081C1064.73 76.4437 1062.3 76.4447 1058.32 75.412C1055.33 74.6355 1049.42 74.0001 1045.2 74.0001C1036.5 74.0001 1036 74.5294 1035.81 84.0507L1035.69 89.9484L1028.03 90.0237C1019.65 90.1062 1016.52 91.3824 1009 97.7824C1002.81 103.057 997.781 104.07 990.549 101.501C987.478 100.41 984.566 99.5174 984.078 99.5174C983.589 99.5174 981.869 102.439 980.255 106.01C975.674 116.146 965.882 120.371 958.673 115.322V115.322ZM1001.87 112.346C1001.87 110.13 1014.44 98.2414 1016.79 98.2414C1018.24 98.2414 1020.14 97.3802 1021.01 96.3276C1021.89 95.275 1023.42 94.4138 1024.43 94.4138C1026.74 94.4138 1030.82 103.69 1028.8 104.364C1028.03 104.622 1027.39 105.948 1027.39 107.31C1027.39 108.711 1026.15 110.254 1024.52 110.86C1020.92 112.207 1001.87 113.457 1001.87 112.346ZM1090.77 110.149C1089.34 108.721 1089.82 104.931 1091.51 104.287C1093.63 103.482 1098.85 105.475 1098.85 107.086C1098.85 109.52 1092.53 111.914 1090.77 110.149ZM1053.55 107.328C1050.87 106.755 1049.72 105.756 1049.72 104C1049.72 102.011 1051.12 101.181 1056.44 99.9984C1062.65 98.62 1065.45 97.2385 1070.93 92.8415C1075.02 89.5669 1079.71 81.2393 1079.71 77.2668C1079.71 75.049 1080.4 72.5455 1081.24 71.7035C1083.29 69.6571 1087 69.761 1088.26 71.9C1088.82 72.8501 1090.58 74.3084 1092.16 75.1407C1094.41 76.3223 1094.87 77.357 1094.24 79.8631C1093.66 82.1812 1094.21 83.9015 1096.24 86.0585C1098.08 88.0228 1098.9 90.2671 1098.63 92.6174C1098.27 95.6731 1097.12 96.61 1090.7 99.0903C1086.57 100.685 1082.38 103.156 1081.38 104.581C1079.43 107.364 1073.49 108.102 1071.23 105.842C1070.31 104.92 1069.4 105.115 1068.27 106.48C1066.59 108.506 1060.66 108.847 1053.55 107.328ZM726.617 99.1983C723.522 95.1962 723.76 94.2433 729.243 88.6823C735.658 82.1757 739.343 81.4463 744.662 85.63C748.857 88.9296 748.72 93.5767 744.41 94.1882C742.811 94.415 740.11 95.9939 738.407 97.6968C735.044 101.059 728.683 101.869 726.617 99.1983ZM904.461 95.5514C900.891 93.4293 898.157 85.9927 899.812 82.9019C900.554 81.5145 902.228 80.3793 903.531 80.3793C904.986 80.3793 906.204 79.1633 906.691 77.2265C908.25 71.0139 915.68 70.1156 917.148 75.9622C917.556 77.5883 918.762 79.2533 919.827 79.6621C921.544 80.3208 921.531 80.7616 919.712 83.5371C918.583 85.2596 917.66 87.4867 917.66 88.4862C917.66 93.6736 909.053 98.2806 904.461 95.5514ZM692.662 94.8391C692.194 94.3713 691.811 91.8317 691.811 89.1956C691.811 85.9446 690.785 83.1832 688.621 80.612C684.925 76.2196 684.68 74.3929 687.387 71.4019C689.173 69.4291 689.014 69.1046 685.565 67.6763C674.882 63.2513 675.627 56.982 687.556 50.9277C697.511 45.875 699.899 46.5841 700.502 54.772C700.842 59.3856 700.502 60.2668 698.161 60.8795C694.596 61.8118 697.357 63.7457 702.293 63.7736C707.286 63.8017 709.13 67.8062 706.54 72.9978C705.262 75.5588 704.824 78.518 705.327 81.1968C705.901 84.2578 705.382 86.5718 703.402 89.7746C700.14 95.0523 695.203 97.3802 692.662 94.8391ZM1043.02 92.476C1039.22 89.7765 1039.35 84.8257 1043.34 81.129C1045.1 79.5032 1046.53 77.5211 1046.53 76.7244C1046.53 74.8603 1052.3 74.9851 1058.02 76.9729C1062.98 78.6969 1063.17 80.0872 1059.59 88.3535C1057.98 92.0853 1056.81 93.1418 1054.26 93.1554C1052.47 93.1649 1049.85 93.4738 1048.45 93.8417C1047.04 94.2095 1044.6 93.595 1043.02 92.476ZM717.65 79.6348C713.447 76.3227 712.143 72.7241 715.146 72.7241C716.05 72.7241 717.916 69.1362 719.293 64.7509C721.352 58.1937 722.432 56.5596 725.373 55.5499C730.136 53.9146 733.401 56.0224 732.919 60.4218C732.626 63.0963 733.352 64.0597 736.747 65.4958C746.483 69.6153 748.282 76.9 739.735 77.5995C736.981 77.825 733.32 79.1168 731.599 80.4702C727.338 83.8218 722.603 83.5383 717.65 79.6348ZM753.909 82.0805C752.114 80.286 753.211 77.5438 757.17 73.9281C759.432 71.8625 762.283 70.1724 763.505 70.1724C766.446 70.1724 768.291 66.5046 767.481 62.2674C766.894 59.1998 767.28 58.7704 771.3 58.0164C778.796 56.6102 780.51 57.5128 780.355 62.7846C780.18 68.6828 773.338 77.8276 769.099 77.8276C767.512 77.8276 765.174 78.9759 763.904 80.3793C761.686 82.8296 755.68 83.8518 753.909 82.0805ZM942.538 73.9953C942.103 73.291 940.343 73.0672 938.627 73.4978C933.798 74.7096 927.058 72.9516 922.801 69.3703C918.529 65.7756 918.046 63.1677 920.941 59.3276C922.563 57.1754 924.805 56.676 935.255 56.1379L947.645 55.5L947.253 50.9475L946.861 46.395L956.823 44.8787C970.393 42.8133 972.923 42.9581 976.821 46.0236C981.026 49.331 981.077 51.6656 977.004 54.3344C974.495 55.9776 973.997 57.1028 974.64 59.6647C975.421 62.7789 975.268 62.8817 970.893 62.172C964.427 61.1227 961.473 62.228 959.772 66.3323C957.18 72.5908 953.738 75.2759 948.309 75.2759C945.57 75.2759 942.974 74.6996 942.538 73.9953ZM891.119 68.6414C888.681 66.2034 889.305 64.6354 893.982 61.4512C901.331 56.4478 906.366 60.057 901.786 67.0455C899.549 70.4601 893.799 71.3204 891.119 68.6414ZM746.85 64.9555C743.279 61.6282 743.885 59.5416 748.698 58.5968C755.377 57.2856 759.509 61.9359 755.355 66.0897C753.087 68.3577 750.071 67.9555 746.85 64.9555ZM1276.78 61.1302C1276.31 60.3674 1276.59 59.0803 1277.4 58.2702C1278.51 57.1568 1279.15 57.2469 1280.01 58.6394C1281.22 60.607 1280.61 62.5172 1278.76 62.5172C1278.14 62.5172 1277.25 61.8931 1276.78 61.1302ZM781.981 55.3989C780.121 52.8457 779.958 51.8089 781.18 50.3355C783.764 47.2233 788.682 48.0442 790.121 51.8276C792.613 58.3833 786.204 61.1957 781.981 55.3989ZM1231.36 55.2429C1230.28 53.9809 1229.03 51.9451 1228.6 50.7191C1228.16 49.493 1225.2 47.2256 1222.02 45.6803C1218.84 44.1351 1216.24 42.1784 1216.24 41.332C1216.24 40.4856 1218.25 37.388 1220.71 34.4483C1223.16 31.5086 1225.17 28.6871 1225.17 28.1783C1225.17 27.6695 1223.74 26.0053 1221.98 24.4799C1218.34 21.3128 1218.04 19.1703 1220.58 14.2901C1224.34 7.06586 1227.63 5.27833 1237.67 4.98499C1249.12 4.65066 1250.76 5.82496 1247.72 12.1955C1246.52 14.7068 1245.83 17.2265 1246.18 17.7949C1246.53 18.3632 1250.26 19.0766 1254.45 19.38C1267.06 20.2919 1270.4 25.6575 1263.77 34.3278C1261.02 37.92 1260.26 40.2962 1260.26 45.2931C1260.26 51.0497 1259.96 51.7145 1257.21 52.1038C1255.53 52.341 1251.94 51.5335 1249.22 50.3093C1246.51 49.0851 1244.12 48.3169 1243.93 48.6021C1243.73 48.8873 1243.01 50.8431 1242.32 52.9483C1241.35 55.9339 1240.22 56.8596 1237.2 57.1567C1234.7 57.4037 1232.64 56.7305 1231.36 55.2429ZM1282.74 53.2673C1282.15 51.6884 1280.66 44.081 1279.43 36.3621C1276.77 19.7828 1277.64 15.2975 1283.52 15.3299C1285.46 15.3406 1287.69 15.7712 1288.46 16.2868C1291.02 17.9935 1292.87 22.8685 1292.11 25.8887C1291.53 28.2243 1292.07 29.1843 1294.63 30.353C1298.99 32.3378 1298.78 34.8907 1293.29 46.4365C1288.41 56.7304 1284.87 59.0183 1282.74 53.2673ZM729.453 50.8477C726.168 49.3712 722.87 48.8186 720.202 49.2979C717.921 49.7075 716.055 49.7248 716.055 49.3363C716.055 48.1376 726.745 31.3156 728.139 30.3212C730.786 28.4323 734.021 29.4431 738.7 33.621C741.333 35.9729 745.139 38.2984 747.157 38.7887C750.611 39.6283 750.784 39.9829 750.128 44.8739C749.745 47.7304 748.956 50.5048 748.374 51.0393C745.967 53.2508 734.54 53.1351 729.453 50.8477V50.8477ZM758.481 52.7412C756.067 51.7671 756.549 49.0927 760.076 43.8959C761.831 41.3107 763.266 38.0606 763.266 36.6732C763.266 34.5626 763.839 34.2919 766.775 35.0148C775.471 37.156 776.842 37.1771 778.488 35.1949C780.651 32.5881 790.005 32.5197 793.327 35.0862C795.775 36.9778 795.774 37.0228 793.251 38.9692C791.848 40.0523 789.264 41.2759 787.509 41.6884C785.755 42.1008 783.041 43.5989 781.478 45.0174C779.915 46.4359 776.661 47.7163 774.248 47.8629C771.834 48.0094 768.298 49.3571 766.39 50.8577C762.914 53.5925 761.453 53.9403 758.481 52.7412L758.481 52.7412ZM1270.15 10.6378C1265.73 8.85424 1271.33 0 1276.88 0C1279.13 0 1279.66 0.799448 1279.79 4.44189C1280.01 10.1229 1275.71 12.882 1270.15 10.6378Z"
    />
</svg>