<svg width="689" height="218" viewBox="0 0 689 218" fill="#4E598C"
    xmlns="http://www.w3.org/2000/svg">
    <path
        d="M22.5974 213.348C22.8095 210.789 23.1 207.397 23.2429 205.809C23.3857 204.221 23.702 199.817 23.9458 196.023C24.3327 190.001 24.5339 189.126 25.5319 189.126C27.9806 189.126 28.7044 188.386 28.7044 185.885C28.7044 184.2 29.0863 183.156 29.9148 182.576C30.9502 181.85 31.2284 180.313 31.8393 171.939C32.2321 166.555 32.5534 160.061 32.5534 157.508V152.865L28.8841 151.545C26.0592 150.529 25.1303 149.866 24.8476 148.662C24.6456 147.802 23.6986 146.721 22.7433 146.261C21.292 145.561 21.0063 145.009 21.0063 142.905C21.0063 140.531 20.8297 140.301 17.9591 138.929L14.9119 137.473V133.623C14.9119 129.932 14.8284 129.734 12.8819 128.811C11.5853 128.196 10.7276 127.239 10.5078 126.161C10.2726 125.008 9.61925 124.338 8.4434 124.043L6.72313 123.611L7.2745 115.463C7.57775 110.982 7.8325 105.15 7.8406 102.503L7.85532 97.6911L4.16664 95.9329C0.606446 94.2359 0.477966 94.0874 0.477966 91.6704C0.477966 90.0364 0.812331 89.0379 1.44023 88.7969C1.96948 88.5937 2.40249 87.8143 2.40249 87.0649C2.40249 86.3154 2.97985 84.9681 3.68551 84.0708C4.39117 83.1735 4.96853 81.9345 4.96853 81.3175C4.96853 80.1938 6.66691 79.4295 9.20016 79.413C11.2253 79.3997 14.3328 77.6484 15.5044 75.86C16.0769 74.9861 17.116 74.271 17.8135 74.271C18.7184 74.271 19.0817 73.8374 19.0817 72.7572C19.0817 71.4312 19.4999 71.1723 22.4497 70.6718C25.7982 70.1036 25.8188 70.0857 26.0246 67.5615C26.1556 65.9552 26.6857 64.7045 27.468 64.1565C28.148 63.6801 28.7044 62.6043 28.7044 61.7658C28.7044 60.7907 29.18 60.0903 30.0241 59.8223C30.75 59.5919 31.6005 58.7283 31.9141 57.9033C32.2374 57.0527 33.1242 56.3125 33.9623 56.1937C35.2459 56.0117 35.4667 55.5645 35.6416 52.7922C35.8647 49.2578 36.6022 47.9635 38.3933 47.9635C39.6996 47.9635 40.1363 46.718 40.4031 42.2314C40.5553 39.6721 40.7654 39.3343 42.4968 38.8639C43.6676 38.5458 45.1018 38.6181 46.1587 39.0484C47.7907 39.7127 47.9075 40.0339 48.0833 44.3408C48.2485 48.3879 48.4398 49.0003 49.7138 49.5594C50.9694 50.1104 51.1572 50.6719 51.1572 53.874C51.1572 57.3153 51.2826 57.6202 53.0817 58.5507C54.1402 59.0982 55.0081 60.044 55.0103 60.6525C55.0127 61.2611 55.8786 62.2508 56.9348 62.852C58.8045 63.9161 58.8553 64.0745 58.8553 68.8407C58.8553 72.4656 59.0635 73.6701 59.6572 73.4809C60.0982 73.3405 60.7441 72.5946 61.0923 71.8234C61.4406 71.0522 62.2187 70.4212 62.8215 70.4212C63.4242 70.4212 64.2977 69.6271 64.7626 68.6566C65.4784 67.1625 66.1292 66.8283 69.0094 66.4759C70.8802 66.2469 72.4794 65.9582 72.5631 65.8342C72.6468 65.7102 73.2045 64.8261 73.8025 63.8695C74.4751 62.7933 75.8288 61.8772 77.3528 61.4667C79.7388 60.8241 81.3081 58.9029 81.3081 56.6246C81.3081 56.1066 82.2324 55.548 83.4756 55.3148L85.6429 54.9081L86.0793 49.9043C86.5106 44.959 86.5387 44.896 88.4827 44.5071C94.8106 43.2413 99.0309 44.6833 98.2081 47.8302C97.776 49.483 98.9773 51.244 100.213 50.7696C100.68 50.5904 101.254 49.1639 101.489 47.5995C101.824 45.3597 102.179 44.7553 103.159 44.7553C104.115 44.7553 104.402 44.3071 104.402 42.8166C104.402 41.3713 104.811 40.6919 106.006 40.147C106.888 39.745 107.61 39.0222 107.61 38.5408C107.61 38.0593 108.332 37.391 109.214 37.0555C110.634 36.5155 110.818 36.0724 110.818 33.1882C110.818 30.1456 110.945 29.8864 112.742 29.2596C114.225 28.7427 114.668 28.1978 114.674 26.8868C114.692 22.5692 115.43 20.4812 117.086 20.0655C117.981 19.8409 119.535 19.9975 120.539 20.4136C122.275 21.1328 122.365 21.3709 122.365 25.2481C122.365 28.9346 122.525 29.4314 124.037 30.4222C125.496 31.3781 125.666 31.8411 125.371 34.0451C124.937 37.2805 125.306 38.1682 127.575 39.3415C128.59 39.8669 129.421 40.7061 129.421 41.2064C129.421 41.7068 130.263 42.6133 131.291 43.221C132.32 43.8286 133.468 44.9999 133.843 45.8238C134.391 47.0266 135.027 47.3219 137.068 47.3219C138.466 47.3219 139.798 47.0176 140.028 46.6458C140.257 46.2739 140.575 44.1805 140.733 41.9938C140.892 39.8071 141.135 37.6821 141.274 37.2715C141.413 36.8609 143.463 36.3175 145.83 36.0641C149.232 35.6997 150.494 35.8174 151.864 36.6265C153.237 37.4377 154.082 37.5155 155.942 37.0017C157.966 36.4429 158.289 36.0932 158.289 34.4642C158.289 33.2698 158.761 32.2801 159.572 31.7735C160.278 31.3327 160.855 30.6139 160.855 30.1761C160.855 29.7384 161.577 29.1991 162.459 28.9776C163.938 28.6064 164.063 28.2866 164.063 24.8749C164.063 21.277 164.116 21.1642 165.987 20.7898C167.886 20.4101 167.912 20.3488 167.912 16.2895V12.1742L170.148 11.7545C173.961 11.0392 174.968 12.0829 174.968 16.7456C174.968 20.4702 175.112 20.8793 176.879 22.1862C178.63 23.4804 178.758 23.8343 178.408 26.3886C178.075 28.8182 178.22 29.3135 179.527 30.2293C181.922 31.9071 182.667 31.5597 182.667 28.7651C182.667 26.5001 182.855 26.208 184.563 25.8329C186.406 25.4279 186.464 25.2978 186.648 21.1431C186.825 17.1309 186.944 16.8322 188.601 16.2517C189.732 15.8551 190.997 15.8552 192.129 16.2519C193.805 16.8396 193.902 17.0993 194.081 21.4849C194.257 25.809 194.393 26.1878 196.238 27.5016C198.016 28.7679 198.173 29.1542 197.86 31.49C197.532 33.9345 197.695 34.2551 200.835 37.3388C205.009 41.4375 207.857 43.472 209.422 43.472C210.092 43.472 211.888 44.3902 213.414 45.5123L216.188 47.5527L215.771 52.0415C215.541 54.5103 215.047 56.9001 214.672 57.352C213.952 58.2193 214.401 59.5132 215.422 59.5132C215.754 59.5132 219.129 61.5606 222.922 64.0631C228.72 67.8889 230.066 68.527 231.379 68.0728C232.646 67.6344 232.965 67.0498 233.071 64.9667C233.144 63.5553 233.235 61.9008 233.274 61.2899C233.314 60.6734 234.059 60.0001 234.95 59.7767C236.368 59.4205 236.565 59.0117 236.65 56.2354C236.789 51.6769 236.812 51.5379 237.516 51.0212C238.533 50.2735 241.995 50.4548 242.84 51.3001C243.264 51.7236 243.61 53.7242 243.61 55.7458C243.61 59.2702 244.605 61.4381 246.222 61.4381C246.549 61.4381 246.818 62.8609 246.818 64.5998C246.818 67.2724 247.086 67.9728 248.554 69.1277L250.291 70.4939L250.779 69.1743C251.137 68.2041 251.833 67.8546 253.404 67.8546C256.345 67.8546 257.082 68.8398 257.082 72.7727C257.082 75.4941 257.331 76.2843 258.365 76.8376C259.333 77.3561 259.648 78.1811 259.648 80.2043C259.648 82.6371 259.984 83.1968 263.293 86.2773C266.552 89.3107 268.766 90.5363 268.553 89.1893C268.511 88.9246 268.511 87.6717 268.553 86.4049C268.612 84.6103 268.983 83.9403 270.233 83.3708C271.685 82.709 271.836 82.2749 271.836 78.7763V74.9127H274.274C277.538 74.9127 278.252 75.8116 278.252 79.9214C278.252 82.8572 278.498 83.5841 279.855 84.652C281.085 85.6199 281.459 86.508 281.459 88.4645C281.459 90.6751 281.865 91.3996 284.506 93.8979C286.182 95.4834 288.275 96.9554 289.157 97.1691C290.039 97.3827 291.593 98.1395 292.609 98.8509L294.458 100.144L294.042 105.655C293.567 111.952 293.111 111.298 300.668 115.153C306.587 118.173 307.119 118.054 307.119 113.716C307.119 110.545 307.285 110.108 308.69 109.574C310.071 109.049 310.285 108.527 310.454 105.259C310.624 101.989 310.818 101.517 312.058 101.34C314.948 100.929 316.101 102.252 316.101 105.981C316.101 108.935 316.324 109.561 317.704 110.465C319.02 111.327 319.308 112.033 319.308 114.389C319.308 115.969 319.525 117.264 319.789 117.267C320.054 117.27 321.786 118.692 323.638 120.428C326.994 123.573 327.006 123.598 327.006 127.531V131.479L330.872 135.077C332.999 137.057 335.286 138.717 335.954 138.766C336.622 138.815 339.353 140.277 342.023 142.014C346.637 145.017 346.877 145.292 346.885 147.579C346.892 149.82 346.763 149.985 344.991 149.985C343.768 149.985 342.852 150.428 342.426 151.225C342.061 151.907 341.185 152.648 340.479 152.873C339.256 153.261 339.195 153.841 339.195 165.027V176.774L337.357 177.142C335.957 177.422 335.429 177.963 335.138 179.416C334.898 180.617 334.036 181.748 332.806 182.475C331.733 183.109 330.855 184.158 330.855 184.806C330.855 185.538 330.127 186.238 328.931 186.655C326.628 187.458 326.262 189.966 328.289 191.051C329.205 191.541 329.572 192.394 329.572 194.03C329.572 196.16 329.687 196.294 331.189 195.917C332.079 195.694 333.378 195.817 334.076 196.191C335.084 196.73 335.346 196.668 335.346 195.891C335.346 195.352 335.923 194.551 336.629 194.11C337.335 193.669 337.912 192.673 337.912 191.897C337.912 189.993 338.343 189.808 344.386 189.119C351.571 188.299 352.025 188.606 352.025 194.282C352.025 198.731 352.033 198.75 353.789 198.742C357.706 198.722 358.44 198.166 358.44 195.221C358.44 193.023 358.693 192.418 359.723 192.148C360.652 191.905 361.006 191.273 361.006 189.857C361.006 188.143 361.265 187.861 363.091 187.581C367.833 186.855 372.919 186.594 373.578 187.042C373.966 187.306 374.464 189.512 374.685 191.944C374.907 194.376 375.213 196.491 375.366 196.644C375.518 196.797 376.969 196.723 378.589 196.48C381.422 196.055 381.535 195.955 381.535 193.865C381.535 192.548 382.04 191.187 382.818 190.409C383.523 189.703 384.101 188.299 384.101 187.289V185.452L390.194 185.004C393.545 184.758 396.533 184.709 396.835 184.896C397.136 185.082 397.556 187.299 397.767 189.823C397.979 192.346 398.247 194.506 398.364 194.623C398.48 194.739 400.009 194.631 401.762 194.381L404.95 193.929L405.149 191.171C405.268 189.512 405.715 188.273 406.271 188.06C406.784 187.863 407.195 186.87 407.195 185.829C407.195 183.591 407.365 183.515 413.931 182.8C421.681 181.956 421.308 181.344 421.308 194.923C421.308 202.18 421.546 206.45 421.95 206.45C422.633 206.45 422.801 205.7 422.622 203.446C422.484 201.713 424.281 200.675 427.422 200.675C430.858 200.675 440.383 206.999 440.671 209.471C440.803 210.613 441.632 211.73 443.054 212.686C446.096 214.729 447.553 214.594 448.027 212.225C448.337 210.677 448.741 210.298 450.096 210.29C452.601 210.276 453.266 209.589 453.496 206.78C453.695 204.347 453.822 204.215 456.449 203.699C458.738 203.249 459.562 203.387 461.42 204.536C462.645 205.294 463.682 206.251 463.724 206.663C463.765 207.075 463.984 206.546 464.209 205.488C464.564 203.816 464.954 203.521 467.18 203.242C469.575 202.942 469.754 202.774 469.923 200.675C470.075 198.78 469.797 198.229 468.139 197.146C465.967 195.727 465.374 194.237 465.685 190.979L465.893 188.805L471.65 188.289C474.878 188 477.621 187.437 477.895 187.006C478.163 186.584 478.387 185.156 478.393 183.832C478.398 182.509 478.691 181.426 479.044 181.426C479.397 181.426 479.685 180.435 479.685 179.223C479.685 176.651 479.862 176.572 486.928 175.966C492.803 175.462 493.799 175.974 493.799 179.499C493.799 180.824 493.979 182.81 494.2 183.912C494.574 185.786 494.782 185.918 497.365 185.918C498.886 185.918 500.871 185.636 501.776 185.292C503.208 184.747 503.421 184.289 503.421 181.763C503.421 180.166 503.71 178.859 504.063 178.859C504.416 178.859 504.704 177.877 504.704 176.677V174.494L508.714 174.084C510.919 173.858 513.784 173.519 515.08 173.331C517.989 172.908 518.506 173.708 518.996 179.391C519.189 181.625 519.457 183.563 519.592 183.698C519.727 183.833 521.701 183.738 523.979 183.487L528.119 183.03L528.315 179.982C528.423 178.306 528.766 176.934 529.078 176.934C529.39 176.934 529.735 175.852 529.845 174.528C530.043 172.131 530.057 172.121 533.498 171.701C535.397 171.469 537.13 170.99 537.348 170.637C537.566 170.284 537.567 167.298 537.348 164.001C537.13 160.704 536.902 153.164 536.841 147.247C536.78 141.33 536.576 136.089 536.389 135.602C536.202 135.114 536.357 134.525 536.734 134.292C537.111 134.059 537.419 133.01 537.419 131.961C537.419 130.858 537.825 129.898 538.381 129.685C539.194 129.373 539.293 127.913 539.025 120.241C538.851 115.25 538.574 107.123 538.41 102.183C538.123 93.507 537.551 80.82 537.128 73.7342C537.015 71.8509 536.602 69.9885 536.209 69.5956C535.816 69.2027 535.495 67.4086 535.495 65.6088C535.495 63.809 535.154 61.9953 534.737 61.5784C534.081 60.9225 533.228 56.6306 532.668 51.1718C532.538 49.9081 532.097 49.5269 530.59 49.3755C528.327 49.1482 526.514 46.5494 526.514 43.5334C526.514 41.8534 526.271 41.5471 524.943 41.5471C523.919 41.5471 522.824 40.8197 521.803 39.4617C520.454 37.6682 520.203 36.5377 520.006 31.3828L519.78 25.3891L522.6 25.1724C525.934 24.9163 526.483 24.2455 526.043 20.965C525.75 18.7799 525.88 18.4765 527.237 18.1828C528.756 17.8542 537.665 16.5229 538.346 16.5229C538.543 16.5229 538.704 15.8181 538.704 14.9566C538.704 14.0952 538.993 13.2119 539.346 12.9938C539.699 12.7757 539.987 11.7858 539.987 10.7941C539.987 9.00587 540.035 8.98487 545.772 8.24894C549.623 7.75505 551.952 7.71826 552.738 8.13894C554.682 9.17956 556.025 11.8223 556.025 14.6072C556.025 17.5468 557.382 20.6593 558.922 21.2502C559.482 21.4654 561.081 21.2857 562.474 20.8509L565.006 20.0603V14.8004C565.006 11.9074 565.268 9.37879 565.588 9.18116C565.907 8.98353 566.031 8.29664 565.864 7.65476C565.389 5.83829 566.834 5.13497 572.384 4.48288C579.91 3.59848 581.05 4.44525 582.012 11.6337C582.242 13.356 582.756 15.4787 583.153 16.3507C583.825 17.8264 584.099 17.9068 587.111 17.5108C588.89 17.2768 590.577 16.8573 590.86 16.5786C591.143 16.2999 591.368 14.2243 591.36 11.9662C591.339 5.8009 591.947 2.45337 593.209 1.77769C593.818 1.45141 596.889 0.990231 600.033 0.752866L605.749 0.321289L606.868 2.66902C607.484 3.96028 607.987 5.99876 607.987 7.19898C607.987 8.39921 608.269 10.1219 608.613 11.0271C609.17 12.4913 609.593 12.673 612.45 12.673C615.276 12.673 615.706 12.4942 616.036 11.1799C616.242 10.3587 616.319 8.84281 616.208 7.81126C616.014 6.00508 616.125 5.921 619.214 5.53854C620.978 5.3201 623.774 4.92241 625.428 4.65478C628.358 4.18067 628.469 4.22377 629.756 6.33523C630.483 7.5271 631.078 8.97717 631.079 9.55759C631.079 10.4442 631.463 10.5268 633.469 10.0743C634.783 9.77804 635.901 9.59189 635.954 9.66062C636.886 10.8638 638.138 14.3061 638.138 15.6648C638.138 16.7741 638.735 17.9262 639.733 18.7445C640.729 19.5614 641.649 21.3351 642.184 23.472C642.655 25.353 643.34 27.0854 643.707 27.3218C645.305 28.3516 646.345 31.8644 646.493 36.7347C646.699 43.4955 646.705 43.4706 645.035 43.4808C641.444 43.5026 640.704 44.1101 640.704 47.0381C640.704 49.7894 640.681 49.8176 637.978 50.3578L635.251 50.9027L635.23 59.8599C635.218 64.7863 634.988 70.9826 634.718 73.6294C633.978 80.9074 635.689 105.707 637.067 107.676C637.791 108.71 638.138 110.51 638.138 113.233C638.138 116.654 638.309 117.261 639.27 117.261C639.892 117.261 641.085 118.368 641.921 119.721C643.135 121.685 643.828 122.181 645.358 122.181H647.274L646.974 117.5L646.674 112.82L649.944 112.148C655.29 111.048 660.531 111.152 661.76 112.381C663.241 113.862 663.934 122.177 662.74 124.136C661.632 125.955 661.65 132.632 662.767 134.105C663.236 134.722 664.368 135.227 665.283 135.227C666.564 135.227 667.199 135.762 668.052 137.558L669.157 139.888L673.79 139.496L678.423 139.105L682.283 146.63C684.407 150.769 686.599 155.022 687.156 156.081C687.713 157.14 688.17 159.076 688.172 160.383C688.178 162.972 688.75 162.673 681.657 163.78C680.718 163.927 679.274 164.722 678.449 165.546C677.008 166.988 676.966 167.306 677.363 173.755C677.59 177.445 677.806 183.134 677.844 186.399L677.912 192.334H675.346H672.78V194.901C672.78 197.27 672.644 197.468 671.016 197.477C667.621 197.496 667.509 197.834 667.414 208.297L667.327 217.999L344.769 217.999L22.2117 218L22.5974 213.348Z" />
</svg>