<svg id="visual" viewBox="0 0 960 300" width="960" height="300" xmlns="http://www.w3.org/2000/svg" xmlns:xlink="http://www.w3.org/1999/xlink" version="1.1"><rect x="0" y="0" width="960" height="300" fill="#4e598c"></rect><path d="M0 226L80 226L80 251L160 251L160 265L240 265L240 216L320 216L320 233L400 233L400 257L480 257L480 228L560 228L560 215L640 215L640 219L720 219L720 253L800 253L800 235L880 235L880 242L960 242L960 250L960 0L960 0L880 0L880 0L800 0L800 0L720 0L720 0L640 0L640 0L560 0L560 0L480 0L480 0L400 0L400 0L320 0L320 0L240 0L240 0L160 0L160 0L80 0L80 0L0 0Z" fill="#ff8c42"></path><path d="M0 155L80 155L80 172L160 172L160 212L240 212L240 180L320 180L320 175L400 175L400 211L480 211L480 171L560 171L560 169L640 169L640 215L720 215L720 155L800 155L800 177L880 177L880 208L960 208L960 176L960 0L960 0L880 0L880 0L800 0L800 0L720 0L720 0L640 0L640 0L560 0L560 0L480 0L480 0L400 0L400 0L320 0L320 0L240 0L240 0L160 0L160 0L80 0L80 0L0 0Z" fill="#fca154"></path><path d="M0 103L80 103L80 107L160 107L160 106L240 106L240 101L320 101L320 118L400 118L400 119L480 119L480 122L560 122L560 106L640 106L640 103L720 103L720 140L800 140L800 116L880 116L880 107L960 107L960 125L960 0L960 0L880 0L880 0L800 0L800 0L720 0L720 0L640 0L640 0L560 0L560 0L480 0L480 0L400 0L400 0L320 0L320 0L240 0L240 0L160 0L160 0L80 0L80 0L0 0Z" fill="#fab56b"></path><path d="M0 93L80 93L80 34L160 34L160 81L240 81L240 62L320 62L320 90L400 90L400 74L480 74L480 46L560 46L560 30L640 30L640 28L720 28L720 69L800 69L800 39L880 39L880 25L960 25L960 26L960 0L960 0L880 0L880 0L800 0L800 0L720 0L720 0L640 0L640 0L560 0L560 0L480 0L480 0L400 0L400 0L320 0L320 0L240 0L240 0L160 0L160 0L80 0L80 0L0 0Z" fill="#f9c784"></path></svg>