<svg id="visual" viewBox="0 0 960 300" width="960" height="300" xmlns="http://www.w3.org/2000/svg" xmlns:xlink="http://www.w3.org/1999/xlink" version="1.1"><rect x="0" y="0" width="960" height="300" fill="#ff8c42"></rect><path d="M0 61L22.8 56.3C45.7 51.7 91.3 42.3 137 49.3C182.7 56.3 228.3 79.7 274 83C319.7 86.3 365.3 69.7 411.2 70.8C457 72 503 91 548.8 99.2C594.7 107.3 640.3 104.7 686 106.2C731.7 107.7 777.3 113.3 823 111.8C868.7 110.3 914.3 101.7 937.2 97.3L960 93L960 301L937.2 301C914.3 301 868.7 301 823 301C777.3 301 731.7 301 686 301C640.3 301 594.7 301 548.8 301C503 301 457 301 411.2 301C365.3 301 319.7 301 274 301C228.3 301 182.7 301 137 301C91.3 301 45.7 301 22.8 301L0 301Z" fill="#4e598c"></path><path d="M0 119L22.8 114.5C45.7 110 91.3 101 137 108C182.7 115 228.3 138 274 147.8C319.7 157.7 365.3 154.3 411.2 144.8C457 135.3 503 119.7 548.8 107.8C594.7 96 640.3 88 686 97.2C731.7 106.3 777.3 132.7 823 145.3C868.7 158 914.3 157 937.2 156.5L960 156L960 301L937.2 301C914.3 301 868.7 301 823 301C777.3 301 731.7 301 686 301C640.3 301 594.7 301 548.8 301C503 301 457 301 411.2 301C365.3 301 319.7 301 274 301C228.3 301 182.7 301 137 301C91.3 301 45.7 301 22.8 301L0 301Z" fill="#7477a8"></path><path d="M0 148L22.8 152.8C45.7 157.7 91.3 167.3 137 171.5C182.7 175.7 228.3 174.3 274 178.5C319.7 182.7 365.3 192.3 411.2 195.5C457 198.7 503 195.3 548.8 185.3C594.7 175.3 640.3 158.7 686 153.2C731.7 147.7 777.3 153.3 823 156.7C868.7 160 914.3 161 937.2 161.5L960 162L960 301L937.2 301C914.3 301 868.7 301 823 301C777.3 301 731.7 301 686 301C640.3 301 594.7 301 548.8 301C503 301 457 301 411.2 301C365.3 301 319.7 301 274 301C228.3 301 182.7 301 137 301C91.3 301 45.7 301 22.8 301L0 301Z" fill="#9996c4"></path><path d="M0 176L22.8 186.5C45.7 197 91.3 218 137 222.3C182.7 226.7 228.3 214.3 274 210C319.7 205.7 365.3 209.3 411.2 210.3C457 211.3 503 209.7 548.8 212.2C594.7 214.7 640.3 221.3 686 216.8C731.7 212.3 777.3 196.7 823 193.7C868.7 190.7 914.3 200.3 937.2 205.2L960 210L960 301L937.2 301C914.3 301 868.7 301 823 301C777.3 301 731.7 301 686 301C640.3 301 594.7 301 548.8 301C503 301 457 301 411.2 301C365.3 301 319.7 301 274 301C228.3 301 182.7 301 137 301C91.3 301 45.7 301 22.8 301L0 301Z" fill="#beb7e1"></path><path d="M0 226L22.8 225.2C45.7 224.3 91.3 222.7 137 230C182.7 237.3 228.3 253.7 274 261.5C319.7 269.3 365.3 268.7 411.2 260.5C457 252.3 503 236.7 548.8 234.7C594.7 232.7 640.3 244.3 686 252.8C731.7 261.3 777.3 266.7 823 269C868.7 271.3 914.3 270.7 937.2 270.3L960 270L960 301L937.2 301C914.3 301 868.7 301 823 301C777.3 301 731.7 301 686 301C640.3 301 594.7 301 548.8 301C503 301 457 301 411.2 301C365.3 301 319.7 301 274 301C228.3 301 182.7 301 137 301C91.3 301 45.7 301 22.8 301L0 301Z" fill="#e4d9ff"></path></svg>